%TF.GenerationSoftware,KiCad,Pcbnew,8.0.4*%
%TF.CreationDate,2024-08-25T14:18:05+02:00*%
%TF.ProjectId,cooking_thermometer,636f6f6b-696e-4675-9f74-6865726d6f6d,rev?*%
%TF.SameCoordinates,Original*%
%TF.FileFunction,Legend,Top*%
%TF.FilePolarity,Positive*%
%FSLAX46Y46*%
G04 Gerber Fmt 4.6, Leading zero omitted, Abs format (unit mm)*
G04 Created by KiCad (PCBNEW 8.0.4) date 2024-08-25 14:18:05*
%MOMM*%
%LPD*%
G01*
G04 APERTURE LIST*
%ADD10C,0.150000*%
%ADD11C,0.120000*%
%ADD12C,0.100000*%
G04 APERTURE END LIST*
D10*
X212728571Y-113754819D02*
X212966666Y-114754819D01*
X212966666Y-114754819D02*
X213157142Y-114040533D01*
X213157142Y-114040533D02*
X213347618Y-114754819D01*
X213347618Y-114754819D02*
X213585714Y-113754819D01*
X214395237Y-114754819D02*
X214395237Y-114231009D01*
X214395237Y-114231009D02*
X214347618Y-114135771D01*
X214347618Y-114135771D02*
X214252380Y-114088152D01*
X214252380Y-114088152D02*
X214061904Y-114088152D01*
X214061904Y-114088152D02*
X213966666Y-114135771D01*
X214395237Y-114707200D02*
X214299999Y-114754819D01*
X214299999Y-114754819D02*
X214061904Y-114754819D01*
X214061904Y-114754819D02*
X213966666Y-114707200D01*
X213966666Y-114707200D02*
X213919047Y-114611961D01*
X213919047Y-114611961D02*
X213919047Y-114516723D01*
X213919047Y-114516723D02*
X213966666Y-114421485D01*
X213966666Y-114421485D02*
X214061904Y-114373866D01*
X214061904Y-114373866D02*
X214299999Y-114373866D01*
X214299999Y-114373866D02*
X214395237Y-114326247D01*
X214776190Y-114088152D02*
X215014285Y-114754819D01*
X215252380Y-114088152D02*
X215014285Y-114754819D01*
X215014285Y-114754819D02*
X214919047Y-114992914D01*
X214919047Y-114992914D02*
X214871428Y-115040533D01*
X214871428Y-115040533D02*
X214776190Y-115088152D01*
X215538095Y-113754819D02*
X215776190Y-114754819D01*
X215776190Y-114754819D02*
X215966666Y-114040533D01*
X215966666Y-114040533D02*
X216157142Y-114754819D01*
X216157142Y-114754819D02*
X216395238Y-113754819D01*
X217204761Y-114754819D02*
X217204761Y-114231009D01*
X217204761Y-114231009D02*
X217157142Y-114135771D01*
X217157142Y-114135771D02*
X217061904Y-114088152D01*
X217061904Y-114088152D02*
X216871428Y-114088152D01*
X216871428Y-114088152D02*
X216776190Y-114135771D01*
X217204761Y-114707200D02*
X217109523Y-114754819D01*
X217109523Y-114754819D02*
X216871428Y-114754819D01*
X216871428Y-114754819D02*
X216776190Y-114707200D01*
X216776190Y-114707200D02*
X216728571Y-114611961D01*
X216728571Y-114611961D02*
X216728571Y-114516723D01*
X216728571Y-114516723D02*
X216776190Y-114421485D01*
X216776190Y-114421485D02*
X216871428Y-114373866D01*
X216871428Y-114373866D02*
X217109523Y-114373866D01*
X217109523Y-114373866D02*
X217204761Y-114326247D01*
X217585714Y-114088152D02*
X217823809Y-114754819D01*
X218061904Y-114088152D02*
X217823809Y-114754819D01*
X217823809Y-114754819D02*
X217728571Y-114992914D01*
X217728571Y-114992914D02*
X217680952Y-115040533D01*
X217680952Y-115040533D02*
X217585714Y-115088152D01*
X218347619Y-113754819D02*
X218585714Y-114754819D01*
X218585714Y-114754819D02*
X218776190Y-114040533D01*
X218776190Y-114040533D02*
X218966666Y-114754819D01*
X218966666Y-114754819D02*
X219204762Y-113754819D01*
X220014285Y-114754819D02*
X220014285Y-114231009D01*
X220014285Y-114231009D02*
X219966666Y-114135771D01*
X219966666Y-114135771D02*
X219871428Y-114088152D01*
X219871428Y-114088152D02*
X219680952Y-114088152D01*
X219680952Y-114088152D02*
X219585714Y-114135771D01*
X220014285Y-114707200D02*
X219919047Y-114754819D01*
X219919047Y-114754819D02*
X219680952Y-114754819D01*
X219680952Y-114754819D02*
X219585714Y-114707200D01*
X219585714Y-114707200D02*
X219538095Y-114611961D01*
X219538095Y-114611961D02*
X219538095Y-114516723D01*
X219538095Y-114516723D02*
X219585714Y-114421485D01*
X219585714Y-114421485D02*
X219680952Y-114373866D01*
X219680952Y-114373866D02*
X219919047Y-114373866D01*
X219919047Y-114373866D02*
X220014285Y-114326247D01*
X220395238Y-114088152D02*
X220633333Y-114754819D01*
X220871428Y-114088152D02*
X220633333Y-114754819D01*
X220633333Y-114754819D02*
X220538095Y-114992914D01*
X220538095Y-114992914D02*
X220490476Y-115040533D01*
X220490476Y-115040533D02*
X220395238Y-115088152D01*
X149223809Y-114954819D02*
X148890476Y-114478628D01*
X148652381Y-114954819D02*
X148652381Y-113954819D01*
X148652381Y-113954819D02*
X149033333Y-113954819D01*
X149033333Y-113954819D02*
X149128571Y-114002438D01*
X149128571Y-114002438D02*
X149176190Y-114050057D01*
X149176190Y-114050057D02*
X149223809Y-114145295D01*
X149223809Y-114145295D02*
X149223809Y-114288152D01*
X149223809Y-114288152D02*
X149176190Y-114383390D01*
X149176190Y-114383390D02*
X149128571Y-114431009D01*
X149128571Y-114431009D02*
X149033333Y-114478628D01*
X149033333Y-114478628D02*
X148652381Y-114478628D01*
X150033333Y-114907200D02*
X149938095Y-114954819D01*
X149938095Y-114954819D02*
X149747619Y-114954819D01*
X149747619Y-114954819D02*
X149652381Y-114907200D01*
X149652381Y-114907200D02*
X149604762Y-114811961D01*
X149604762Y-114811961D02*
X149604762Y-114431009D01*
X149604762Y-114431009D02*
X149652381Y-114335771D01*
X149652381Y-114335771D02*
X149747619Y-114288152D01*
X149747619Y-114288152D02*
X149938095Y-114288152D01*
X149938095Y-114288152D02*
X150033333Y-114335771D01*
X150033333Y-114335771D02*
X150080952Y-114431009D01*
X150080952Y-114431009D02*
X150080952Y-114526247D01*
X150080952Y-114526247D02*
X149604762Y-114621485D01*
X150414286Y-114288152D02*
X150652381Y-114954819D01*
X150652381Y-114954819D02*
X150890476Y-114288152D01*
X151795238Y-114954819D02*
X151223810Y-114954819D01*
X151509524Y-114954819D02*
X151509524Y-113954819D01*
X151509524Y-113954819D02*
X151414286Y-114097676D01*
X151414286Y-114097676D02*
X151319048Y-114192914D01*
X151319048Y-114192914D02*
X151223810Y-114240533D01*
X208110588Y-77619819D02*
X207539160Y-77619819D01*
X207824874Y-77619819D02*
X207824874Y-76619819D01*
X207824874Y-76619819D02*
X207729636Y-76762676D01*
X207729636Y-76762676D02*
X207634398Y-76857914D01*
X207634398Y-76857914D02*
X207539160Y-76905533D01*
X211086779Y-77369819D02*
X211086779Y-76369819D01*
X211515350Y-76465057D02*
X211562969Y-76417438D01*
X211562969Y-76417438D02*
X211658207Y-76369819D01*
X211658207Y-76369819D02*
X211896302Y-76369819D01*
X211896302Y-76369819D02*
X211991540Y-76417438D01*
X211991540Y-76417438D02*
X212039159Y-76465057D01*
X212039159Y-76465057D02*
X212086778Y-76560295D01*
X212086778Y-76560295D02*
X212086778Y-76655533D01*
X212086778Y-76655533D02*
X212039159Y-76798390D01*
X212039159Y-76798390D02*
X211467731Y-77369819D01*
X211467731Y-77369819D02*
X212086778Y-77369819D01*
X213086778Y-77274580D02*
X213039159Y-77322200D01*
X213039159Y-77322200D02*
X212896302Y-77369819D01*
X212896302Y-77369819D02*
X212801064Y-77369819D01*
X212801064Y-77369819D02*
X212658207Y-77322200D01*
X212658207Y-77322200D02*
X212562969Y-77226961D01*
X212562969Y-77226961D02*
X212515350Y-77131723D01*
X212515350Y-77131723D02*
X212467731Y-76941247D01*
X212467731Y-76941247D02*
X212467731Y-76798390D01*
X212467731Y-76798390D02*
X212515350Y-76607914D01*
X212515350Y-76607914D02*
X212562969Y-76512676D01*
X212562969Y-76512676D02*
X212658207Y-76417438D01*
X212658207Y-76417438D02*
X212801064Y-76369819D01*
X212801064Y-76369819D02*
X212896302Y-76369819D01*
X212896302Y-76369819D02*
X213039159Y-76417438D01*
X213039159Y-76417438D02*
X213086778Y-76465057D01*
X190709523Y-115559580D02*
X190661904Y-115607200D01*
X190661904Y-115607200D02*
X190519047Y-115654819D01*
X190519047Y-115654819D02*
X190423809Y-115654819D01*
X190423809Y-115654819D02*
X190280952Y-115607200D01*
X190280952Y-115607200D02*
X190185714Y-115511961D01*
X190185714Y-115511961D02*
X190138095Y-115416723D01*
X190138095Y-115416723D02*
X190090476Y-115226247D01*
X190090476Y-115226247D02*
X190090476Y-115083390D01*
X190090476Y-115083390D02*
X190138095Y-114892914D01*
X190138095Y-114892914D02*
X190185714Y-114797676D01*
X190185714Y-114797676D02*
X190280952Y-114702438D01*
X190280952Y-114702438D02*
X190423809Y-114654819D01*
X190423809Y-114654819D02*
X190519047Y-114654819D01*
X190519047Y-114654819D02*
X190661904Y-114702438D01*
X190661904Y-114702438D02*
X190709523Y-114750057D01*
X148346009Y-85829887D02*
X148346009Y-86163220D01*
X148869819Y-86163220D02*
X147869819Y-86163220D01*
X147869819Y-86163220D02*
X147869819Y-85687030D01*
X147869819Y-85448934D02*
X147869819Y-84877506D01*
X148869819Y-85163220D02*
X147869819Y-85163220D01*
X148869819Y-84544172D02*
X147869819Y-84544172D01*
X147869819Y-84544172D02*
X147869819Y-84306077D01*
X147869819Y-84306077D02*
X147917438Y-84163220D01*
X147917438Y-84163220D02*
X148012676Y-84067982D01*
X148012676Y-84067982D02*
X148107914Y-84020363D01*
X148107914Y-84020363D02*
X148298390Y-83972744D01*
X148298390Y-83972744D02*
X148441247Y-83972744D01*
X148441247Y-83972744D02*
X148631723Y-84020363D01*
X148631723Y-84020363D02*
X148726961Y-84067982D01*
X148726961Y-84067982D02*
X148822200Y-84163220D01*
X148822200Y-84163220D02*
X148869819Y-84306077D01*
X148869819Y-84306077D02*
X148869819Y-84544172D01*
X148869819Y-83544172D02*
X147869819Y-83544172D01*
X160869048Y-106073866D02*
X161630953Y-106073866D01*
X161250000Y-106454819D02*
X161250000Y-105692914D01*
X201170112Y-76946009D02*
X201312969Y-76993628D01*
X201312969Y-76993628D02*
X201360588Y-77041247D01*
X201360588Y-77041247D02*
X201408207Y-77136485D01*
X201408207Y-77136485D02*
X201408207Y-77279342D01*
X201408207Y-77279342D02*
X201360588Y-77374580D01*
X201360588Y-77374580D02*
X201312969Y-77422200D01*
X201312969Y-77422200D02*
X201217731Y-77469819D01*
X201217731Y-77469819D02*
X200836779Y-77469819D01*
X200836779Y-77469819D02*
X200836779Y-76469819D01*
X200836779Y-76469819D02*
X201170112Y-76469819D01*
X201170112Y-76469819D02*
X201265350Y-76517438D01*
X201265350Y-76517438D02*
X201312969Y-76565057D01*
X201312969Y-76565057D02*
X201360588Y-76660295D01*
X201360588Y-76660295D02*
X201360588Y-76755533D01*
X201360588Y-76755533D02*
X201312969Y-76850771D01*
X201312969Y-76850771D02*
X201265350Y-76898390D01*
X201265350Y-76898390D02*
X201170112Y-76946009D01*
X201170112Y-76946009D02*
X200836779Y-76946009D01*
X202027255Y-76469819D02*
X202217731Y-76469819D01*
X202217731Y-76469819D02*
X202312969Y-76517438D01*
X202312969Y-76517438D02*
X202408207Y-76612676D01*
X202408207Y-76612676D02*
X202455826Y-76803152D01*
X202455826Y-76803152D02*
X202455826Y-77136485D01*
X202455826Y-77136485D02*
X202408207Y-77326961D01*
X202408207Y-77326961D02*
X202312969Y-77422200D01*
X202312969Y-77422200D02*
X202217731Y-77469819D01*
X202217731Y-77469819D02*
X202027255Y-77469819D01*
X202027255Y-77469819D02*
X201932017Y-77422200D01*
X201932017Y-77422200D02*
X201836779Y-77326961D01*
X201836779Y-77326961D02*
X201789160Y-77136485D01*
X201789160Y-77136485D02*
X201789160Y-76803152D01*
X201789160Y-76803152D02*
X201836779Y-76612676D01*
X201836779Y-76612676D02*
X201932017Y-76517438D01*
X201932017Y-76517438D02*
X202027255Y-76469819D01*
X203074874Y-76469819D02*
X203265350Y-76469819D01*
X203265350Y-76469819D02*
X203360588Y-76517438D01*
X203360588Y-76517438D02*
X203455826Y-76612676D01*
X203455826Y-76612676D02*
X203503445Y-76803152D01*
X203503445Y-76803152D02*
X203503445Y-77136485D01*
X203503445Y-77136485D02*
X203455826Y-77326961D01*
X203455826Y-77326961D02*
X203360588Y-77422200D01*
X203360588Y-77422200D02*
X203265350Y-77469819D01*
X203265350Y-77469819D02*
X203074874Y-77469819D01*
X203074874Y-77469819D02*
X202979636Y-77422200D01*
X202979636Y-77422200D02*
X202884398Y-77326961D01*
X202884398Y-77326961D02*
X202836779Y-77136485D01*
X202836779Y-77136485D02*
X202836779Y-76803152D01*
X202836779Y-76803152D02*
X202884398Y-76612676D01*
X202884398Y-76612676D02*
X202979636Y-76517438D01*
X202979636Y-76517438D02*
X203074874Y-76469819D01*
X203789160Y-76469819D02*
X204360588Y-76469819D01*
X204074874Y-77469819D02*
X204074874Y-76469819D01*
X204884398Y-76469819D02*
X204979636Y-76469819D01*
X204979636Y-76469819D02*
X205074874Y-76517438D01*
X205074874Y-76517438D02*
X205122493Y-76565057D01*
X205122493Y-76565057D02*
X205170112Y-76660295D01*
X205170112Y-76660295D02*
X205217731Y-76850771D01*
X205217731Y-76850771D02*
X205217731Y-77088866D01*
X205217731Y-77088866D02*
X205170112Y-77279342D01*
X205170112Y-77279342D02*
X205122493Y-77374580D01*
X205122493Y-77374580D02*
X205074874Y-77422200D01*
X205074874Y-77422200D02*
X204979636Y-77469819D01*
X204979636Y-77469819D02*
X204884398Y-77469819D01*
X204884398Y-77469819D02*
X204789160Y-77422200D01*
X204789160Y-77422200D02*
X204741541Y-77374580D01*
X204741541Y-77374580D02*
X204693922Y-77279342D01*
X204693922Y-77279342D02*
X204646303Y-77088866D01*
X204646303Y-77088866D02*
X204646303Y-76850771D01*
X204646303Y-76850771D02*
X204693922Y-76660295D01*
X204693922Y-76660295D02*
X204741541Y-76565057D01*
X204741541Y-76565057D02*
X204789160Y-76517438D01*
X204789160Y-76517438D02*
X204884398Y-76469819D01*
X185832588Y-77787819D02*
X185261160Y-77787819D01*
X185546874Y-77787819D02*
X185546874Y-76787819D01*
X185546874Y-76787819D02*
X185451636Y-76930676D01*
X185451636Y-76930676D02*
X185356398Y-77025914D01*
X185356398Y-77025914D02*
X185261160Y-77073533D01*
X167836779Y-76988866D02*
X168598684Y-76988866D01*
X176789160Y-77322200D02*
X176932017Y-77369819D01*
X176932017Y-77369819D02*
X177170112Y-77369819D01*
X177170112Y-77369819D02*
X177265350Y-77322200D01*
X177265350Y-77322200D02*
X177312969Y-77274580D01*
X177312969Y-77274580D02*
X177360588Y-77179342D01*
X177360588Y-77179342D02*
X177360588Y-77084104D01*
X177360588Y-77084104D02*
X177312969Y-76988866D01*
X177312969Y-76988866D02*
X177265350Y-76941247D01*
X177265350Y-76941247D02*
X177170112Y-76893628D01*
X177170112Y-76893628D02*
X176979636Y-76846009D01*
X176979636Y-76846009D02*
X176884398Y-76798390D01*
X176884398Y-76798390D02*
X176836779Y-76750771D01*
X176836779Y-76750771D02*
X176789160Y-76655533D01*
X176789160Y-76655533D02*
X176789160Y-76560295D01*
X176789160Y-76560295D02*
X176836779Y-76465057D01*
X176836779Y-76465057D02*
X176884398Y-76417438D01*
X176884398Y-76417438D02*
X176979636Y-76369819D01*
X176979636Y-76369819D02*
X177217731Y-76369819D01*
X177217731Y-76369819D02*
X177360588Y-76417438D01*
X177646303Y-76369819D02*
X178217731Y-76369819D01*
X177932017Y-77369819D02*
X177932017Y-76369819D01*
X179027255Y-77369819D02*
X178551065Y-77369819D01*
X178551065Y-77369819D02*
X178551065Y-76369819D01*
X179360589Y-77369819D02*
X179360589Y-76703152D01*
X179360589Y-76369819D02*
X179312970Y-76417438D01*
X179312970Y-76417438D02*
X179360589Y-76465057D01*
X179360589Y-76465057D02*
X179408208Y-76417438D01*
X179408208Y-76417438D02*
X179360589Y-76369819D01*
X179360589Y-76369819D02*
X179360589Y-76465057D01*
X179836779Y-76703152D02*
X179836779Y-77369819D01*
X179836779Y-76798390D02*
X179884398Y-76750771D01*
X179884398Y-76750771D02*
X179979636Y-76703152D01*
X179979636Y-76703152D02*
X180122493Y-76703152D01*
X180122493Y-76703152D02*
X180217731Y-76750771D01*
X180217731Y-76750771D02*
X180265350Y-76846009D01*
X180265350Y-76846009D02*
X180265350Y-77369819D01*
X180741541Y-77369819D02*
X180741541Y-76369819D01*
X180836779Y-76988866D02*
X181122493Y-77369819D01*
X181122493Y-76703152D02*
X180741541Y-77084104D01*
X160869048Y-108573866D02*
X161630953Y-108573866D01*
X149110588Y-93119819D02*
X148539160Y-93119819D01*
X148824874Y-93119819D02*
X148824874Y-92119819D01*
X148824874Y-92119819D02*
X148729636Y-92262676D01*
X148729636Y-92262676D02*
X148634398Y-92357914D01*
X148634398Y-92357914D02*
X148539160Y-92405533D01*
X169241541Y-76369819D02*
X169860588Y-76369819D01*
X169860588Y-76369819D02*
X169527255Y-76750771D01*
X169527255Y-76750771D02*
X169670112Y-76750771D01*
X169670112Y-76750771D02*
X169765350Y-76798390D01*
X169765350Y-76798390D02*
X169812969Y-76846009D01*
X169812969Y-76846009D02*
X169860588Y-76941247D01*
X169860588Y-76941247D02*
X169860588Y-77179342D01*
X169860588Y-77179342D02*
X169812969Y-77274580D01*
X169812969Y-77274580D02*
X169765350Y-77322200D01*
X169765350Y-77322200D02*
X169670112Y-77369819D01*
X169670112Y-77369819D02*
X169384398Y-77369819D01*
X169384398Y-77369819D02*
X169289160Y-77322200D01*
X169289160Y-77322200D02*
X169241541Y-77274580D01*
X170146303Y-76369819D02*
X170479636Y-77369819D01*
X170479636Y-77369819D02*
X170812969Y-76369819D01*
X171051065Y-76369819D02*
X171670112Y-76369819D01*
X171670112Y-76369819D02*
X171336779Y-76750771D01*
X171336779Y-76750771D02*
X171479636Y-76750771D01*
X171479636Y-76750771D02*
X171574874Y-76798390D01*
X171574874Y-76798390D02*
X171622493Y-76846009D01*
X171622493Y-76846009D02*
X171670112Y-76941247D01*
X171670112Y-76941247D02*
X171670112Y-77179342D01*
X171670112Y-77179342D02*
X171622493Y-77274580D01*
X171622493Y-77274580D02*
X171574874Y-77322200D01*
X171574874Y-77322200D02*
X171479636Y-77369819D01*
X171479636Y-77369819D02*
X171193922Y-77369819D01*
X171193922Y-77369819D02*
X171098684Y-77322200D01*
X171098684Y-77322200D02*
X171051065Y-77274580D01*
X148402009Y-97805887D02*
X148449628Y-97663030D01*
X148449628Y-97663030D02*
X148497247Y-97615411D01*
X148497247Y-97615411D02*
X148592485Y-97567792D01*
X148592485Y-97567792D02*
X148735342Y-97567792D01*
X148735342Y-97567792D02*
X148830580Y-97615411D01*
X148830580Y-97615411D02*
X148878200Y-97663030D01*
X148878200Y-97663030D02*
X148925819Y-97758268D01*
X148925819Y-97758268D02*
X148925819Y-98139220D01*
X148925819Y-98139220D02*
X147925819Y-98139220D01*
X147925819Y-98139220D02*
X147925819Y-97805887D01*
X147925819Y-97805887D02*
X147973438Y-97710649D01*
X147973438Y-97710649D02*
X148021057Y-97663030D01*
X148021057Y-97663030D02*
X148116295Y-97615411D01*
X148116295Y-97615411D02*
X148211533Y-97615411D01*
X148211533Y-97615411D02*
X148306771Y-97663030D01*
X148306771Y-97663030D02*
X148354390Y-97710649D01*
X148354390Y-97710649D02*
X148402009Y-97805887D01*
X148402009Y-97805887D02*
X148402009Y-98139220D01*
X148640104Y-97186839D02*
X148640104Y-96710649D01*
X148925819Y-97282077D02*
X147925819Y-96948744D01*
X147925819Y-96948744D02*
X148925819Y-96615411D01*
X147925819Y-96424934D02*
X147925819Y-95853506D01*
X148925819Y-96139220D02*
X147925819Y-96139220D01*
X147925819Y-95663029D02*
X147925819Y-95091601D01*
X148925819Y-95377315D02*
X147925819Y-95377315D01*
X148544866Y-99389220D02*
X148544866Y-98627316D01*
X148925819Y-99008268D02*
X148163914Y-99008268D01*
X190808207Y-77469819D02*
X190474874Y-76993628D01*
X190236779Y-77469819D02*
X190236779Y-76469819D01*
X190236779Y-76469819D02*
X190617731Y-76469819D01*
X190617731Y-76469819D02*
X190712969Y-76517438D01*
X190712969Y-76517438D02*
X190760588Y-76565057D01*
X190760588Y-76565057D02*
X190808207Y-76660295D01*
X190808207Y-76660295D02*
X190808207Y-76803152D01*
X190808207Y-76803152D02*
X190760588Y-76898390D01*
X190760588Y-76898390D02*
X190712969Y-76946009D01*
X190712969Y-76946009D02*
X190617731Y-76993628D01*
X190617731Y-76993628D02*
X190236779Y-76993628D01*
X191189160Y-77422200D02*
X191332017Y-77469819D01*
X191332017Y-77469819D02*
X191570112Y-77469819D01*
X191570112Y-77469819D02*
X191665350Y-77422200D01*
X191665350Y-77422200D02*
X191712969Y-77374580D01*
X191712969Y-77374580D02*
X191760588Y-77279342D01*
X191760588Y-77279342D02*
X191760588Y-77184104D01*
X191760588Y-77184104D02*
X191712969Y-77088866D01*
X191712969Y-77088866D02*
X191665350Y-77041247D01*
X191665350Y-77041247D02*
X191570112Y-76993628D01*
X191570112Y-76993628D02*
X191379636Y-76946009D01*
X191379636Y-76946009D02*
X191284398Y-76898390D01*
X191284398Y-76898390D02*
X191236779Y-76850771D01*
X191236779Y-76850771D02*
X191189160Y-76755533D01*
X191189160Y-76755533D02*
X191189160Y-76660295D01*
X191189160Y-76660295D02*
X191236779Y-76565057D01*
X191236779Y-76565057D02*
X191284398Y-76517438D01*
X191284398Y-76517438D02*
X191379636Y-76469819D01*
X191379636Y-76469819D02*
X191617731Y-76469819D01*
X191617731Y-76469819D02*
X191760588Y-76517438D01*
X192046303Y-76469819D02*
X192617731Y-76469819D01*
X192332017Y-77469819D02*
X192332017Y-76469819D01*
X155658207Y-79024580D02*
X155610588Y-79072200D01*
X155610588Y-79072200D02*
X155467731Y-79119819D01*
X155467731Y-79119819D02*
X155372493Y-79119819D01*
X155372493Y-79119819D02*
X155229636Y-79072200D01*
X155229636Y-79072200D02*
X155134398Y-78976961D01*
X155134398Y-78976961D02*
X155086779Y-78881723D01*
X155086779Y-78881723D02*
X155039160Y-78691247D01*
X155039160Y-78691247D02*
X155039160Y-78548390D01*
X155039160Y-78548390D02*
X155086779Y-78357914D01*
X155086779Y-78357914D02*
X155134398Y-78262676D01*
X155134398Y-78262676D02*
X155229636Y-78167438D01*
X155229636Y-78167438D02*
X155372493Y-78119819D01*
X155372493Y-78119819D02*
X155467731Y-78119819D01*
X155467731Y-78119819D02*
X155610588Y-78167438D01*
X155610588Y-78167438D02*
X155658207Y-78215057D01*
X156086779Y-79119819D02*
X156086779Y-78119819D01*
X156086779Y-78596009D02*
X156658207Y-78596009D01*
X156658207Y-79119819D02*
X156658207Y-78119819D01*
X157658207Y-78167438D02*
X157562969Y-78119819D01*
X157562969Y-78119819D02*
X157420112Y-78119819D01*
X157420112Y-78119819D02*
X157277255Y-78167438D01*
X157277255Y-78167438D02*
X157182017Y-78262676D01*
X157182017Y-78262676D02*
X157134398Y-78357914D01*
X157134398Y-78357914D02*
X157086779Y-78548390D01*
X157086779Y-78548390D02*
X157086779Y-78691247D01*
X157086779Y-78691247D02*
X157134398Y-78881723D01*
X157134398Y-78881723D02*
X157182017Y-78976961D01*
X157182017Y-78976961D02*
X157277255Y-79072200D01*
X157277255Y-79072200D02*
X157420112Y-79119819D01*
X157420112Y-79119819D02*
X157515350Y-79119819D01*
X157515350Y-79119819D02*
X157658207Y-79072200D01*
X157658207Y-79072200D02*
X157705826Y-79024580D01*
X157705826Y-79024580D02*
X157705826Y-78691247D01*
X157705826Y-78691247D02*
X157515350Y-78691247D01*
X172336779Y-76988866D02*
X173098684Y-76988866D01*
X172717731Y-77369819D02*
X172717731Y-76607914D01*
X169961905Y-115369104D02*
X170438095Y-115369104D01*
X169866667Y-115654819D02*
X170200000Y-114654819D01*
X170200000Y-114654819D02*
X170533333Y-115654819D01*
X148544866Y-94889220D02*
X148544866Y-94127316D01*
X160409523Y-106854819D02*
X159933333Y-106854819D01*
X159933333Y-106854819D02*
X159885714Y-107331009D01*
X159885714Y-107331009D02*
X159933333Y-107283390D01*
X159933333Y-107283390D02*
X160028571Y-107235771D01*
X160028571Y-107235771D02*
X160266666Y-107235771D01*
X160266666Y-107235771D02*
X160361904Y-107283390D01*
X160361904Y-107283390D02*
X160409523Y-107331009D01*
X160409523Y-107331009D02*
X160457142Y-107426247D01*
X160457142Y-107426247D02*
X160457142Y-107664342D01*
X160457142Y-107664342D02*
X160409523Y-107759580D01*
X160409523Y-107759580D02*
X160361904Y-107807200D01*
X160361904Y-107807200D02*
X160266666Y-107854819D01*
X160266666Y-107854819D02*
X160028571Y-107854819D01*
X160028571Y-107854819D02*
X159933333Y-107807200D01*
X159933333Y-107807200D02*
X159885714Y-107759580D01*
X160742857Y-106854819D02*
X161076190Y-107854819D01*
X161076190Y-107854819D02*
X161409523Y-106854819D01*
X159336779Y-79119819D02*
X159336779Y-78119819D01*
X159336779Y-78119819D02*
X159717731Y-78119819D01*
X159717731Y-78119819D02*
X159812969Y-78167438D01*
X159812969Y-78167438D02*
X159860588Y-78215057D01*
X159860588Y-78215057D02*
X159908207Y-78310295D01*
X159908207Y-78310295D02*
X159908207Y-78453152D01*
X159908207Y-78453152D02*
X159860588Y-78548390D01*
X159860588Y-78548390D02*
X159812969Y-78596009D01*
X159812969Y-78596009D02*
X159717731Y-78643628D01*
X159717731Y-78643628D02*
X159336779Y-78643628D01*
X160241541Y-78119819D02*
X160479636Y-79119819D01*
X160479636Y-79119819D02*
X160670112Y-78405533D01*
X160670112Y-78405533D02*
X160860588Y-79119819D01*
X160860588Y-79119819D02*
X161098684Y-78119819D01*
X162051064Y-79119819D02*
X161717731Y-78643628D01*
X161479636Y-79119819D02*
X161479636Y-78119819D01*
X161479636Y-78119819D02*
X161860588Y-78119819D01*
X161860588Y-78119819D02*
X161955826Y-78167438D01*
X161955826Y-78167438D02*
X162003445Y-78215057D01*
X162003445Y-78215057D02*
X162051064Y-78310295D01*
X162051064Y-78310295D02*
X162051064Y-78453152D01*
X162051064Y-78453152D02*
X162003445Y-78548390D01*
X162003445Y-78548390D02*
X161955826Y-78596009D01*
X161955826Y-78596009D02*
X161860588Y-78643628D01*
X161860588Y-78643628D02*
X161479636Y-78643628D01*
X180271428Y-115131009D02*
X180414285Y-115178628D01*
X180414285Y-115178628D02*
X180461904Y-115226247D01*
X180461904Y-115226247D02*
X180509523Y-115321485D01*
X180509523Y-115321485D02*
X180509523Y-115464342D01*
X180509523Y-115464342D02*
X180461904Y-115559580D01*
X180461904Y-115559580D02*
X180414285Y-115607200D01*
X180414285Y-115607200D02*
X180319047Y-115654819D01*
X180319047Y-115654819D02*
X179938095Y-115654819D01*
X179938095Y-115654819D02*
X179938095Y-114654819D01*
X179938095Y-114654819D02*
X180271428Y-114654819D01*
X180271428Y-114654819D02*
X180366666Y-114702438D01*
X180366666Y-114702438D02*
X180414285Y-114750057D01*
X180414285Y-114750057D02*
X180461904Y-114845295D01*
X180461904Y-114845295D02*
X180461904Y-114940533D01*
X180461904Y-114940533D02*
X180414285Y-115035771D01*
X180414285Y-115035771D02*
X180366666Y-115083390D01*
X180366666Y-115083390D02*
X180271428Y-115131009D01*
X180271428Y-115131009D02*
X179938095Y-115131009D01*
X177738095Y-91204819D02*
X178309523Y-91204819D01*
X178023809Y-92204819D02*
X178023809Y-91204819D01*
X178642857Y-92204819D02*
X178642857Y-91204819D01*
X178642857Y-91204819D02*
X179023809Y-91204819D01*
X179023809Y-91204819D02*
X179119047Y-91252438D01*
X179119047Y-91252438D02*
X179166666Y-91300057D01*
X179166666Y-91300057D02*
X179214285Y-91395295D01*
X179214285Y-91395295D02*
X179214285Y-91538152D01*
X179214285Y-91538152D02*
X179166666Y-91633390D01*
X179166666Y-91633390D02*
X179119047Y-91681009D01*
X179119047Y-91681009D02*
X179023809Y-91728628D01*
X179023809Y-91728628D02*
X178642857Y-91728628D01*
X179595238Y-91300057D02*
X179642857Y-91252438D01*
X179642857Y-91252438D02*
X179738095Y-91204819D01*
X179738095Y-91204819D02*
X179976190Y-91204819D01*
X179976190Y-91204819D02*
X180071428Y-91252438D01*
X180071428Y-91252438D02*
X180119047Y-91300057D01*
X180119047Y-91300057D02*
X180166666Y-91395295D01*
X180166666Y-91395295D02*
X180166666Y-91490533D01*
X180166666Y-91490533D02*
X180119047Y-91633390D01*
X180119047Y-91633390D02*
X179547619Y-92204819D01*
X179547619Y-92204819D02*
X180166666Y-92204819D01*
X202525333Y-111664819D02*
X202192000Y-111188628D01*
X201953905Y-111664819D02*
X201953905Y-110664819D01*
X201953905Y-110664819D02*
X202334857Y-110664819D01*
X202334857Y-110664819D02*
X202430095Y-110712438D01*
X202430095Y-110712438D02*
X202477714Y-110760057D01*
X202477714Y-110760057D02*
X202525333Y-110855295D01*
X202525333Y-110855295D02*
X202525333Y-110998152D01*
X202525333Y-110998152D02*
X202477714Y-111093390D01*
X202477714Y-111093390D02*
X202430095Y-111141009D01*
X202430095Y-111141009D02*
X202334857Y-111188628D01*
X202334857Y-111188628D02*
X201953905Y-111188628D01*
X202858667Y-110664819D02*
X203477714Y-110664819D01*
X203477714Y-110664819D02*
X203144381Y-111045771D01*
X203144381Y-111045771D02*
X203287238Y-111045771D01*
X203287238Y-111045771D02*
X203382476Y-111093390D01*
X203382476Y-111093390D02*
X203430095Y-111141009D01*
X203430095Y-111141009D02*
X203477714Y-111236247D01*
X203477714Y-111236247D02*
X203477714Y-111474342D01*
X203477714Y-111474342D02*
X203430095Y-111569580D01*
X203430095Y-111569580D02*
X203382476Y-111617200D01*
X203382476Y-111617200D02*
X203287238Y-111664819D01*
X203287238Y-111664819D02*
X203001524Y-111664819D01*
X203001524Y-111664819D02*
X202906286Y-111617200D01*
X202906286Y-111617200D02*
X202858667Y-111569580D01*
X212488095Y-85454819D02*
X212488095Y-84454819D01*
X212488095Y-84931009D02*
X213059523Y-84931009D01*
X213059523Y-85454819D02*
X213059523Y-84454819D01*
X214059523Y-85454819D02*
X213488095Y-85454819D01*
X213773809Y-85454819D02*
X213773809Y-84454819D01*
X213773809Y-84454819D02*
X213678571Y-84597676D01*
X213678571Y-84597676D02*
X213583333Y-84692914D01*
X213583333Y-84692914D02*
X213488095Y-84740533D01*
X175666667Y-115607200D02*
X175809524Y-115654819D01*
X175809524Y-115654819D02*
X176047619Y-115654819D01*
X176047619Y-115654819D02*
X176142857Y-115607200D01*
X176142857Y-115607200D02*
X176190476Y-115559580D01*
X176190476Y-115559580D02*
X176238095Y-115464342D01*
X176238095Y-115464342D02*
X176238095Y-115369104D01*
X176238095Y-115369104D02*
X176190476Y-115273866D01*
X176190476Y-115273866D02*
X176142857Y-115226247D01*
X176142857Y-115226247D02*
X176047619Y-115178628D01*
X176047619Y-115178628D02*
X175857143Y-115131009D01*
X175857143Y-115131009D02*
X175761905Y-115083390D01*
X175761905Y-115083390D02*
X175714286Y-115035771D01*
X175714286Y-115035771D02*
X175666667Y-114940533D01*
X175666667Y-114940533D02*
X175666667Y-114845295D01*
X175666667Y-114845295D02*
X175714286Y-114750057D01*
X175714286Y-114750057D02*
X175761905Y-114702438D01*
X175761905Y-114702438D02*
X175857143Y-114654819D01*
X175857143Y-114654819D02*
X176095238Y-114654819D01*
X176095238Y-114654819D02*
X176238095Y-114702438D01*
X176571429Y-114654819D02*
X176809524Y-115654819D01*
X176809524Y-115654819D02*
X177000000Y-114940533D01*
X177000000Y-114940533D02*
X177190476Y-115654819D01*
X177190476Y-115654819D02*
X177428572Y-114654819D01*
X178238095Y-114988152D02*
X178238095Y-115654819D01*
X178000000Y-114607200D02*
X177761905Y-115321485D01*
X177761905Y-115321485D02*
X178380952Y-115321485D01*
X159333333Y-101982819D02*
X159000000Y-101506628D01*
X158761905Y-101982819D02*
X158761905Y-100982819D01*
X158761905Y-100982819D02*
X159142857Y-100982819D01*
X159142857Y-100982819D02*
X159238095Y-101030438D01*
X159238095Y-101030438D02*
X159285714Y-101078057D01*
X159285714Y-101078057D02*
X159333333Y-101173295D01*
X159333333Y-101173295D02*
X159333333Y-101316152D01*
X159333333Y-101316152D02*
X159285714Y-101411390D01*
X159285714Y-101411390D02*
X159238095Y-101459009D01*
X159238095Y-101459009D02*
X159142857Y-101506628D01*
X159142857Y-101506628D02*
X158761905Y-101506628D01*
X159904762Y-101411390D02*
X159809524Y-101363771D01*
X159809524Y-101363771D02*
X159761905Y-101316152D01*
X159761905Y-101316152D02*
X159714286Y-101220914D01*
X159714286Y-101220914D02*
X159714286Y-101173295D01*
X159714286Y-101173295D02*
X159761905Y-101078057D01*
X159761905Y-101078057D02*
X159809524Y-101030438D01*
X159809524Y-101030438D02*
X159904762Y-100982819D01*
X159904762Y-100982819D02*
X160095238Y-100982819D01*
X160095238Y-100982819D02*
X160190476Y-101030438D01*
X160190476Y-101030438D02*
X160238095Y-101078057D01*
X160238095Y-101078057D02*
X160285714Y-101173295D01*
X160285714Y-101173295D02*
X160285714Y-101220914D01*
X160285714Y-101220914D02*
X160238095Y-101316152D01*
X160238095Y-101316152D02*
X160190476Y-101363771D01*
X160190476Y-101363771D02*
X160095238Y-101411390D01*
X160095238Y-101411390D02*
X159904762Y-101411390D01*
X159904762Y-101411390D02*
X159809524Y-101459009D01*
X159809524Y-101459009D02*
X159761905Y-101506628D01*
X159761905Y-101506628D02*
X159714286Y-101601866D01*
X159714286Y-101601866D02*
X159714286Y-101792342D01*
X159714286Y-101792342D02*
X159761905Y-101887580D01*
X159761905Y-101887580D02*
X159809524Y-101935200D01*
X159809524Y-101935200D02*
X159904762Y-101982819D01*
X159904762Y-101982819D02*
X160095238Y-101982819D01*
X160095238Y-101982819D02*
X160190476Y-101935200D01*
X160190476Y-101935200D02*
X160238095Y-101887580D01*
X160238095Y-101887580D02*
X160285714Y-101792342D01*
X160285714Y-101792342D02*
X160285714Y-101601866D01*
X160285714Y-101601866D02*
X160238095Y-101506628D01*
X160238095Y-101506628D02*
X160190476Y-101459009D01*
X160190476Y-101459009D02*
X160095238Y-101411390D01*
X185866667Y-115657200D02*
X186009524Y-115704819D01*
X186009524Y-115704819D02*
X186247619Y-115704819D01*
X186247619Y-115704819D02*
X186342857Y-115657200D01*
X186342857Y-115657200D02*
X186390476Y-115609580D01*
X186390476Y-115609580D02*
X186438095Y-115514342D01*
X186438095Y-115514342D02*
X186438095Y-115419104D01*
X186438095Y-115419104D02*
X186390476Y-115323866D01*
X186390476Y-115323866D02*
X186342857Y-115276247D01*
X186342857Y-115276247D02*
X186247619Y-115228628D01*
X186247619Y-115228628D02*
X186057143Y-115181009D01*
X186057143Y-115181009D02*
X185961905Y-115133390D01*
X185961905Y-115133390D02*
X185914286Y-115085771D01*
X185914286Y-115085771D02*
X185866667Y-114990533D01*
X185866667Y-114990533D02*
X185866667Y-114895295D01*
X185866667Y-114895295D02*
X185914286Y-114800057D01*
X185914286Y-114800057D02*
X185961905Y-114752438D01*
X185961905Y-114752438D02*
X186057143Y-114704819D01*
X186057143Y-114704819D02*
X186295238Y-114704819D01*
X186295238Y-114704819D02*
X186438095Y-114752438D01*
X186771429Y-114704819D02*
X187009524Y-115704819D01*
X187009524Y-115704819D02*
X187200000Y-114990533D01*
X187200000Y-114990533D02*
X187390476Y-115704819D01*
X187390476Y-115704819D02*
X187628572Y-114704819D01*
X188485714Y-114704819D02*
X188009524Y-114704819D01*
X188009524Y-114704819D02*
X187961905Y-115181009D01*
X187961905Y-115181009D02*
X188009524Y-115133390D01*
X188009524Y-115133390D02*
X188104762Y-115085771D01*
X188104762Y-115085771D02*
X188342857Y-115085771D01*
X188342857Y-115085771D02*
X188438095Y-115133390D01*
X188438095Y-115133390D02*
X188485714Y-115181009D01*
X188485714Y-115181009D02*
X188533333Y-115276247D01*
X188533333Y-115276247D02*
X188533333Y-115514342D01*
X188533333Y-115514342D02*
X188485714Y-115609580D01*
X188485714Y-115609580D02*
X188438095Y-115657200D01*
X188438095Y-115657200D02*
X188342857Y-115704819D01*
X188342857Y-115704819D02*
X188104762Y-115704819D01*
X188104762Y-115704819D02*
X188009524Y-115657200D01*
X188009524Y-115657200D02*
X187961905Y-115609580D01*
X191262095Y-91021819D02*
X191262095Y-91831342D01*
X191262095Y-91831342D02*
X191309714Y-91926580D01*
X191309714Y-91926580D02*
X191357333Y-91974200D01*
X191357333Y-91974200D02*
X191452571Y-92021819D01*
X191452571Y-92021819D02*
X191643047Y-92021819D01*
X191643047Y-92021819D02*
X191738285Y-91974200D01*
X191738285Y-91974200D02*
X191785904Y-91926580D01*
X191785904Y-91926580D02*
X191833523Y-91831342D01*
X191833523Y-91831342D02*
X191833523Y-91021819D01*
X192833523Y-92021819D02*
X192262095Y-92021819D01*
X192547809Y-92021819D02*
X192547809Y-91021819D01*
X192547809Y-91021819D02*
X192452571Y-91164676D01*
X192452571Y-91164676D02*
X192357333Y-91259914D01*
X192357333Y-91259914D02*
X192262095Y-91307533D01*
X155353142Y-90637580D02*
X155305523Y-90685200D01*
X155305523Y-90685200D02*
X155162666Y-90732819D01*
X155162666Y-90732819D02*
X155067428Y-90732819D01*
X155067428Y-90732819D02*
X154924571Y-90685200D01*
X154924571Y-90685200D02*
X154829333Y-90589961D01*
X154829333Y-90589961D02*
X154781714Y-90494723D01*
X154781714Y-90494723D02*
X154734095Y-90304247D01*
X154734095Y-90304247D02*
X154734095Y-90161390D01*
X154734095Y-90161390D02*
X154781714Y-89970914D01*
X154781714Y-89970914D02*
X154829333Y-89875676D01*
X154829333Y-89875676D02*
X154924571Y-89780438D01*
X154924571Y-89780438D02*
X155067428Y-89732819D01*
X155067428Y-89732819D02*
X155162666Y-89732819D01*
X155162666Y-89732819D02*
X155305523Y-89780438D01*
X155305523Y-89780438D02*
X155353142Y-89828057D01*
X156305523Y-90732819D02*
X155734095Y-90732819D01*
X156019809Y-90732819D02*
X156019809Y-89732819D01*
X156019809Y-89732819D02*
X155924571Y-89875676D01*
X155924571Y-89875676D02*
X155829333Y-89970914D01*
X155829333Y-89970914D02*
X155734095Y-90018533D01*
X156924571Y-89732819D02*
X157019809Y-89732819D01*
X157019809Y-89732819D02*
X157115047Y-89780438D01*
X157115047Y-89780438D02*
X157162666Y-89828057D01*
X157162666Y-89828057D02*
X157210285Y-89923295D01*
X157210285Y-89923295D02*
X157257904Y-90113771D01*
X157257904Y-90113771D02*
X157257904Y-90351866D01*
X157257904Y-90351866D02*
X157210285Y-90542342D01*
X157210285Y-90542342D02*
X157162666Y-90637580D01*
X157162666Y-90637580D02*
X157115047Y-90685200D01*
X157115047Y-90685200D02*
X157019809Y-90732819D01*
X157019809Y-90732819D02*
X156924571Y-90732819D01*
X156924571Y-90732819D02*
X156829333Y-90685200D01*
X156829333Y-90685200D02*
X156781714Y-90637580D01*
X156781714Y-90637580D02*
X156734095Y-90542342D01*
X156734095Y-90542342D02*
X156686476Y-90351866D01*
X156686476Y-90351866D02*
X156686476Y-90113771D01*
X156686476Y-90113771D02*
X156734095Y-89923295D01*
X156734095Y-89923295D02*
X156781714Y-89828057D01*
X156781714Y-89828057D02*
X156829333Y-89780438D01*
X156829333Y-89780438D02*
X156924571Y-89732819D01*
X170100666Y-80988819D02*
X170100666Y-81703104D01*
X170100666Y-81703104D02*
X170053047Y-81845961D01*
X170053047Y-81845961D02*
X169957809Y-81941200D01*
X169957809Y-81941200D02*
X169814952Y-81988819D01*
X169814952Y-81988819D02*
X169719714Y-81988819D01*
X170481619Y-80988819D02*
X171100666Y-80988819D01*
X171100666Y-80988819D02*
X170767333Y-81369771D01*
X170767333Y-81369771D02*
X170910190Y-81369771D01*
X170910190Y-81369771D02*
X171005428Y-81417390D01*
X171005428Y-81417390D02*
X171053047Y-81465009D01*
X171053047Y-81465009D02*
X171100666Y-81560247D01*
X171100666Y-81560247D02*
X171100666Y-81798342D01*
X171100666Y-81798342D02*
X171053047Y-81893580D01*
X171053047Y-81893580D02*
X171005428Y-81941200D01*
X171005428Y-81941200D02*
X170910190Y-81988819D01*
X170910190Y-81988819D02*
X170624476Y-81988819D01*
X170624476Y-81988819D02*
X170529238Y-81941200D01*
X170529238Y-81941200D02*
X170481619Y-81893580D01*
X183488095Y-82456819D02*
X184059523Y-82456819D01*
X183773809Y-83456819D02*
X183773809Y-82456819D01*
X184392857Y-83456819D02*
X184392857Y-82456819D01*
X184392857Y-82456819D02*
X184773809Y-82456819D01*
X184773809Y-82456819D02*
X184869047Y-82504438D01*
X184869047Y-82504438D02*
X184916666Y-82552057D01*
X184916666Y-82552057D02*
X184964285Y-82647295D01*
X184964285Y-82647295D02*
X184964285Y-82790152D01*
X184964285Y-82790152D02*
X184916666Y-82885390D01*
X184916666Y-82885390D02*
X184869047Y-82933009D01*
X184869047Y-82933009D02*
X184773809Y-82980628D01*
X184773809Y-82980628D02*
X184392857Y-82980628D01*
X185535714Y-82885390D02*
X185440476Y-82837771D01*
X185440476Y-82837771D02*
X185392857Y-82790152D01*
X185392857Y-82790152D02*
X185345238Y-82694914D01*
X185345238Y-82694914D02*
X185345238Y-82647295D01*
X185345238Y-82647295D02*
X185392857Y-82552057D01*
X185392857Y-82552057D02*
X185440476Y-82504438D01*
X185440476Y-82504438D02*
X185535714Y-82456819D01*
X185535714Y-82456819D02*
X185726190Y-82456819D01*
X185726190Y-82456819D02*
X185821428Y-82504438D01*
X185821428Y-82504438D02*
X185869047Y-82552057D01*
X185869047Y-82552057D02*
X185916666Y-82647295D01*
X185916666Y-82647295D02*
X185916666Y-82694914D01*
X185916666Y-82694914D02*
X185869047Y-82790152D01*
X185869047Y-82790152D02*
X185821428Y-82837771D01*
X185821428Y-82837771D02*
X185726190Y-82885390D01*
X185726190Y-82885390D02*
X185535714Y-82885390D01*
X185535714Y-82885390D02*
X185440476Y-82933009D01*
X185440476Y-82933009D02*
X185392857Y-82980628D01*
X185392857Y-82980628D02*
X185345238Y-83075866D01*
X185345238Y-83075866D02*
X185345238Y-83266342D01*
X185345238Y-83266342D02*
X185392857Y-83361580D01*
X185392857Y-83361580D02*
X185440476Y-83409200D01*
X185440476Y-83409200D02*
X185535714Y-83456819D01*
X185535714Y-83456819D02*
X185726190Y-83456819D01*
X185726190Y-83456819D02*
X185821428Y-83409200D01*
X185821428Y-83409200D02*
X185869047Y-83361580D01*
X185869047Y-83361580D02*
X185916666Y-83266342D01*
X185916666Y-83266342D02*
X185916666Y-83075866D01*
X185916666Y-83075866D02*
X185869047Y-82980628D01*
X185869047Y-82980628D02*
X185821428Y-82933009D01*
X185821428Y-82933009D02*
X185726190Y-82885390D01*
X205454819Y-95666666D02*
X204978628Y-95999999D01*
X205454819Y-96238094D02*
X204454819Y-96238094D01*
X204454819Y-96238094D02*
X204454819Y-95857142D01*
X204454819Y-95857142D02*
X204502438Y-95761904D01*
X204502438Y-95761904D02*
X204550057Y-95714285D01*
X204550057Y-95714285D02*
X204645295Y-95666666D01*
X204645295Y-95666666D02*
X204788152Y-95666666D01*
X204788152Y-95666666D02*
X204883390Y-95714285D01*
X204883390Y-95714285D02*
X204931009Y-95761904D01*
X204931009Y-95761904D02*
X204978628Y-95857142D01*
X204978628Y-95857142D02*
X204978628Y-96238094D01*
X204454819Y-94761904D02*
X204454819Y-95238094D01*
X204454819Y-95238094D02*
X204931009Y-95285713D01*
X204931009Y-95285713D02*
X204883390Y-95238094D01*
X204883390Y-95238094D02*
X204835771Y-95142856D01*
X204835771Y-95142856D02*
X204835771Y-94904761D01*
X204835771Y-94904761D02*
X204883390Y-94809523D01*
X204883390Y-94809523D02*
X204931009Y-94761904D01*
X204931009Y-94761904D02*
X205026247Y-94714285D01*
X205026247Y-94714285D02*
X205264342Y-94714285D01*
X205264342Y-94714285D02*
X205359580Y-94761904D01*
X205359580Y-94761904D02*
X205407200Y-94809523D01*
X205407200Y-94809523D02*
X205454819Y-94904761D01*
X205454819Y-94904761D02*
X205454819Y-95142856D01*
X205454819Y-95142856D02*
X205407200Y-95238094D01*
X205407200Y-95238094D02*
X205359580Y-95285713D01*
X168333333Y-99704819D02*
X168000000Y-99228628D01*
X167761905Y-99704819D02*
X167761905Y-98704819D01*
X167761905Y-98704819D02*
X168142857Y-98704819D01*
X168142857Y-98704819D02*
X168238095Y-98752438D01*
X168238095Y-98752438D02*
X168285714Y-98800057D01*
X168285714Y-98800057D02*
X168333333Y-98895295D01*
X168333333Y-98895295D02*
X168333333Y-99038152D01*
X168333333Y-99038152D02*
X168285714Y-99133390D01*
X168285714Y-99133390D02*
X168238095Y-99181009D01*
X168238095Y-99181009D02*
X168142857Y-99228628D01*
X168142857Y-99228628D02*
X167761905Y-99228628D01*
X168809524Y-99704819D02*
X169000000Y-99704819D01*
X169000000Y-99704819D02*
X169095238Y-99657200D01*
X169095238Y-99657200D02*
X169142857Y-99609580D01*
X169142857Y-99609580D02*
X169238095Y-99466723D01*
X169238095Y-99466723D02*
X169285714Y-99276247D01*
X169285714Y-99276247D02*
X169285714Y-98895295D01*
X169285714Y-98895295D02*
X169238095Y-98800057D01*
X169238095Y-98800057D02*
X169190476Y-98752438D01*
X169190476Y-98752438D02*
X169095238Y-98704819D01*
X169095238Y-98704819D02*
X168904762Y-98704819D01*
X168904762Y-98704819D02*
X168809524Y-98752438D01*
X168809524Y-98752438D02*
X168761905Y-98800057D01*
X168761905Y-98800057D02*
X168714286Y-98895295D01*
X168714286Y-98895295D02*
X168714286Y-99133390D01*
X168714286Y-99133390D02*
X168761905Y-99228628D01*
X168761905Y-99228628D02*
X168809524Y-99276247D01*
X168809524Y-99276247D02*
X168904762Y-99323866D01*
X168904762Y-99323866D02*
X169095238Y-99323866D01*
X169095238Y-99323866D02*
X169190476Y-99276247D01*
X169190476Y-99276247D02*
X169238095Y-99228628D01*
X169238095Y-99228628D02*
X169285714Y-99133390D01*
X152454819Y-95583333D02*
X153169104Y-95583333D01*
X153169104Y-95583333D02*
X153311961Y-95630952D01*
X153311961Y-95630952D02*
X153407200Y-95726190D01*
X153407200Y-95726190D02*
X153454819Y-95869047D01*
X153454819Y-95869047D02*
X153454819Y-95964285D01*
X152788152Y-94678571D02*
X153454819Y-94678571D01*
X152407200Y-94916666D02*
X153121485Y-95154761D01*
X153121485Y-95154761D02*
X153121485Y-94535714D01*
X192609580Y-86416666D02*
X192657200Y-86464285D01*
X192657200Y-86464285D02*
X192704819Y-86607142D01*
X192704819Y-86607142D02*
X192704819Y-86702380D01*
X192704819Y-86702380D02*
X192657200Y-86845237D01*
X192657200Y-86845237D02*
X192561961Y-86940475D01*
X192561961Y-86940475D02*
X192466723Y-86988094D01*
X192466723Y-86988094D02*
X192276247Y-87035713D01*
X192276247Y-87035713D02*
X192133390Y-87035713D01*
X192133390Y-87035713D02*
X191942914Y-86988094D01*
X191942914Y-86988094D02*
X191847676Y-86940475D01*
X191847676Y-86940475D02*
X191752438Y-86845237D01*
X191752438Y-86845237D02*
X191704819Y-86702380D01*
X191704819Y-86702380D02*
X191704819Y-86607142D01*
X191704819Y-86607142D02*
X191752438Y-86464285D01*
X191752438Y-86464285D02*
X191800057Y-86416666D01*
X192133390Y-85845237D02*
X192085771Y-85940475D01*
X192085771Y-85940475D02*
X192038152Y-85988094D01*
X192038152Y-85988094D02*
X191942914Y-86035713D01*
X191942914Y-86035713D02*
X191895295Y-86035713D01*
X191895295Y-86035713D02*
X191800057Y-85988094D01*
X191800057Y-85988094D02*
X191752438Y-85940475D01*
X191752438Y-85940475D02*
X191704819Y-85845237D01*
X191704819Y-85845237D02*
X191704819Y-85654761D01*
X191704819Y-85654761D02*
X191752438Y-85559523D01*
X191752438Y-85559523D02*
X191800057Y-85511904D01*
X191800057Y-85511904D02*
X191895295Y-85464285D01*
X191895295Y-85464285D02*
X191942914Y-85464285D01*
X191942914Y-85464285D02*
X192038152Y-85511904D01*
X192038152Y-85511904D02*
X192085771Y-85559523D01*
X192085771Y-85559523D02*
X192133390Y-85654761D01*
X192133390Y-85654761D02*
X192133390Y-85845237D01*
X192133390Y-85845237D02*
X192181009Y-85940475D01*
X192181009Y-85940475D02*
X192228628Y-85988094D01*
X192228628Y-85988094D02*
X192323866Y-86035713D01*
X192323866Y-86035713D02*
X192514342Y-86035713D01*
X192514342Y-86035713D02*
X192609580Y-85988094D01*
X192609580Y-85988094D02*
X192657200Y-85940475D01*
X192657200Y-85940475D02*
X192704819Y-85845237D01*
X192704819Y-85845237D02*
X192704819Y-85654761D01*
X192704819Y-85654761D02*
X192657200Y-85559523D01*
X192657200Y-85559523D02*
X192609580Y-85511904D01*
X192609580Y-85511904D02*
X192514342Y-85464285D01*
X192514342Y-85464285D02*
X192323866Y-85464285D01*
X192323866Y-85464285D02*
X192228628Y-85511904D01*
X192228628Y-85511904D02*
X192181009Y-85559523D01*
X192181009Y-85559523D02*
X192133390Y-85654761D01*
X180761905Y-87465819D02*
X181333333Y-87465819D01*
X181047619Y-88465819D02*
X181047619Y-87465819D01*
X181666667Y-88465819D02*
X181666667Y-87465819D01*
X181666667Y-87465819D02*
X182047619Y-87465819D01*
X182047619Y-87465819D02*
X182142857Y-87513438D01*
X182142857Y-87513438D02*
X182190476Y-87561057D01*
X182190476Y-87561057D02*
X182238095Y-87656295D01*
X182238095Y-87656295D02*
X182238095Y-87799152D01*
X182238095Y-87799152D02*
X182190476Y-87894390D01*
X182190476Y-87894390D02*
X182142857Y-87942009D01*
X182142857Y-87942009D02*
X182047619Y-87989628D01*
X182047619Y-87989628D02*
X181666667Y-87989628D01*
X183190476Y-88465819D02*
X182619048Y-88465819D01*
X182904762Y-88465819D02*
X182904762Y-87465819D01*
X182904762Y-87465819D02*
X182809524Y-87608676D01*
X182809524Y-87608676D02*
X182714286Y-87703914D01*
X182714286Y-87703914D02*
X182619048Y-87751533D01*
X183809524Y-87465819D02*
X183904762Y-87465819D01*
X183904762Y-87465819D02*
X184000000Y-87513438D01*
X184000000Y-87513438D02*
X184047619Y-87561057D01*
X184047619Y-87561057D02*
X184095238Y-87656295D01*
X184095238Y-87656295D02*
X184142857Y-87846771D01*
X184142857Y-87846771D02*
X184142857Y-88084866D01*
X184142857Y-88084866D02*
X184095238Y-88275342D01*
X184095238Y-88275342D02*
X184047619Y-88370580D01*
X184047619Y-88370580D02*
X184000000Y-88418200D01*
X184000000Y-88418200D02*
X183904762Y-88465819D01*
X183904762Y-88465819D02*
X183809524Y-88465819D01*
X183809524Y-88465819D02*
X183714286Y-88418200D01*
X183714286Y-88418200D02*
X183666667Y-88370580D01*
X183666667Y-88370580D02*
X183619048Y-88275342D01*
X183619048Y-88275342D02*
X183571429Y-88084866D01*
X183571429Y-88084866D02*
X183571429Y-87846771D01*
X183571429Y-87846771D02*
X183619048Y-87656295D01*
X183619048Y-87656295D02*
X183666667Y-87561057D01*
X183666667Y-87561057D02*
X183714286Y-87513438D01*
X183714286Y-87513438D02*
X183809524Y-87465819D01*
X171131905Y-97454819D02*
X171131905Y-96454819D01*
X171131905Y-96454819D02*
X171370000Y-96454819D01*
X171370000Y-96454819D02*
X171512857Y-96502438D01*
X171512857Y-96502438D02*
X171608095Y-96597676D01*
X171608095Y-96597676D02*
X171655714Y-96692914D01*
X171655714Y-96692914D02*
X171703333Y-96883390D01*
X171703333Y-96883390D02*
X171703333Y-97026247D01*
X171703333Y-97026247D02*
X171655714Y-97216723D01*
X171655714Y-97216723D02*
X171608095Y-97311961D01*
X171608095Y-97311961D02*
X171512857Y-97407200D01*
X171512857Y-97407200D02*
X171370000Y-97454819D01*
X171370000Y-97454819D02*
X171131905Y-97454819D01*
X172655714Y-97454819D02*
X172084286Y-97454819D01*
X172370000Y-97454819D02*
X172370000Y-96454819D01*
X172370000Y-96454819D02*
X172274762Y-96597676D01*
X172274762Y-96597676D02*
X172179524Y-96692914D01*
X172179524Y-96692914D02*
X172084286Y-96740533D01*
X169988095Y-94954819D02*
X169988095Y-93954819D01*
X170559523Y-94954819D02*
X170130952Y-94383390D01*
X170559523Y-93954819D02*
X169988095Y-94526247D01*
X166454819Y-81488094D02*
X165454819Y-81488094D01*
X165454819Y-81488094D02*
X165454819Y-81249999D01*
X165454819Y-81249999D02*
X165502438Y-81107142D01*
X165502438Y-81107142D02*
X165597676Y-81011904D01*
X165597676Y-81011904D02*
X165692914Y-80964285D01*
X165692914Y-80964285D02*
X165883390Y-80916666D01*
X165883390Y-80916666D02*
X166026247Y-80916666D01*
X166026247Y-80916666D02*
X166216723Y-80964285D01*
X166216723Y-80964285D02*
X166311961Y-81011904D01*
X166311961Y-81011904D02*
X166407200Y-81107142D01*
X166407200Y-81107142D02*
X166454819Y-81249999D01*
X166454819Y-81249999D02*
X166454819Y-81488094D01*
X165788152Y-80059523D02*
X166454819Y-80059523D01*
X165407200Y-80297618D02*
X166121485Y-80535713D01*
X166121485Y-80535713D02*
X166121485Y-79916666D01*
X212666666Y-87704819D02*
X212666666Y-88419104D01*
X212666666Y-88419104D02*
X212619047Y-88561961D01*
X212619047Y-88561961D02*
X212523809Y-88657200D01*
X212523809Y-88657200D02*
X212380952Y-88704819D01*
X212380952Y-88704819D02*
X212285714Y-88704819D01*
X213285714Y-88133390D02*
X213190476Y-88085771D01*
X213190476Y-88085771D02*
X213142857Y-88038152D01*
X213142857Y-88038152D02*
X213095238Y-87942914D01*
X213095238Y-87942914D02*
X213095238Y-87895295D01*
X213095238Y-87895295D02*
X213142857Y-87800057D01*
X213142857Y-87800057D02*
X213190476Y-87752438D01*
X213190476Y-87752438D02*
X213285714Y-87704819D01*
X213285714Y-87704819D02*
X213476190Y-87704819D01*
X213476190Y-87704819D02*
X213571428Y-87752438D01*
X213571428Y-87752438D02*
X213619047Y-87800057D01*
X213619047Y-87800057D02*
X213666666Y-87895295D01*
X213666666Y-87895295D02*
X213666666Y-87942914D01*
X213666666Y-87942914D02*
X213619047Y-88038152D01*
X213619047Y-88038152D02*
X213571428Y-88085771D01*
X213571428Y-88085771D02*
X213476190Y-88133390D01*
X213476190Y-88133390D02*
X213285714Y-88133390D01*
X213285714Y-88133390D02*
X213190476Y-88181009D01*
X213190476Y-88181009D02*
X213142857Y-88228628D01*
X213142857Y-88228628D02*
X213095238Y-88323866D01*
X213095238Y-88323866D02*
X213095238Y-88514342D01*
X213095238Y-88514342D02*
X213142857Y-88609580D01*
X213142857Y-88609580D02*
X213190476Y-88657200D01*
X213190476Y-88657200D02*
X213285714Y-88704819D01*
X213285714Y-88704819D02*
X213476190Y-88704819D01*
X213476190Y-88704819D02*
X213571428Y-88657200D01*
X213571428Y-88657200D02*
X213619047Y-88609580D01*
X213619047Y-88609580D02*
X213666666Y-88514342D01*
X213666666Y-88514342D02*
X213666666Y-88323866D01*
X213666666Y-88323866D02*
X213619047Y-88228628D01*
X213619047Y-88228628D02*
X213571428Y-88181009D01*
X213571428Y-88181009D02*
X213476190Y-88133390D01*
X164338095Y-83274819D02*
X164338095Y-84084342D01*
X164338095Y-84084342D02*
X164385714Y-84179580D01*
X164385714Y-84179580D02*
X164433333Y-84227200D01*
X164433333Y-84227200D02*
X164528571Y-84274819D01*
X164528571Y-84274819D02*
X164719047Y-84274819D01*
X164719047Y-84274819D02*
X164814285Y-84227200D01*
X164814285Y-84227200D02*
X164861904Y-84179580D01*
X164861904Y-84179580D02*
X164909523Y-84084342D01*
X164909523Y-84084342D02*
X164909523Y-83274819D01*
X165290476Y-83274819D02*
X165909523Y-83274819D01*
X165909523Y-83274819D02*
X165576190Y-83655771D01*
X165576190Y-83655771D02*
X165719047Y-83655771D01*
X165719047Y-83655771D02*
X165814285Y-83703390D01*
X165814285Y-83703390D02*
X165861904Y-83751009D01*
X165861904Y-83751009D02*
X165909523Y-83846247D01*
X165909523Y-83846247D02*
X165909523Y-84084342D01*
X165909523Y-84084342D02*
X165861904Y-84179580D01*
X165861904Y-84179580D02*
X165814285Y-84227200D01*
X165814285Y-84227200D02*
X165719047Y-84274819D01*
X165719047Y-84274819D02*
X165433333Y-84274819D01*
X165433333Y-84274819D02*
X165338095Y-84227200D01*
X165338095Y-84227200D02*
X165290476Y-84179580D01*
X168988095Y-100204819D02*
X168988095Y-101014342D01*
X168988095Y-101014342D02*
X169035714Y-101109580D01*
X169035714Y-101109580D02*
X169083333Y-101157200D01*
X169083333Y-101157200D02*
X169178571Y-101204819D01*
X169178571Y-101204819D02*
X169369047Y-101204819D01*
X169369047Y-101204819D02*
X169464285Y-101157200D01*
X169464285Y-101157200D02*
X169511904Y-101109580D01*
X169511904Y-101109580D02*
X169559523Y-101014342D01*
X169559523Y-101014342D02*
X169559523Y-100204819D01*
X169988095Y-100300057D02*
X170035714Y-100252438D01*
X170035714Y-100252438D02*
X170130952Y-100204819D01*
X170130952Y-100204819D02*
X170369047Y-100204819D01*
X170369047Y-100204819D02*
X170464285Y-100252438D01*
X170464285Y-100252438D02*
X170511904Y-100300057D01*
X170511904Y-100300057D02*
X170559523Y-100395295D01*
X170559523Y-100395295D02*
X170559523Y-100490533D01*
X170559523Y-100490533D02*
X170511904Y-100633390D01*
X170511904Y-100633390D02*
X169940476Y-101204819D01*
X169940476Y-101204819D02*
X170559523Y-101204819D01*
X206261905Y-87704819D02*
X206833333Y-87704819D01*
X206547619Y-88704819D02*
X206547619Y-87704819D01*
X207166667Y-88704819D02*
X207166667Y-87704819D01*
X207166667Y-87704819D02*
X207547619Y-87704819D01*
X207547619Y-87704819D02*
X207642857Y-87752438D01*
X207642857Y-87752438D02*
X207690476Y-87800057D01*
X207690476Y-87800057D02*
X207738095Y-87895295D01*
X207738095Y-87895295D02*
X207738095Y-88038152D01*
X207738095Y-88038152D02*
X207690476Y-88133390D01*
X207690476Y-88133390D02*
X207642857Y-88181009D01*
X207642857Y-88181009D02*
X207547619Y-88228628D01*
X207547619Y-88228628D02*
X207166667Y-88228628D01*
X208690476Y-88704819D02*
X208119048Y-88704819D01*
X208404762Y-88704819D02*
X208404762Y-87704819D01*
X208404762Y-87704819D02*
X208309524Y-87847676D01*
X208309524Y-87847676D02*
X208214286Y-87942914D01*
X208214286Y-87942914D02*
X208119048Y-87990533D01*
X209023810Y-87704819D02*
X209642857Y-87704819D01*
X209642857Y-87704819D02*
X209309524Y-88085771D01*
X209309524Y-88085771D02*
X209452381Y-88085771D01*
X209452381Y-88085771D02*
X209547619Y-88133390D01*
X209547619Y-88133390D02*
X209595238Y-88181009D01*
X209595238Y-88181009D02*
X209642857Y-88276247D01*
X209642857Y-88276247D02*
X209642857Y-88514342D01*
X209642857Y-88514342D02*
X209595238Y-88609580D01*
X209595238Y-88609580D02*
X209547619Y-88657200D01*
X209547619Y-88657200D02*
X209452381Y-88704819D01*
X209452381Y-88704819D02*
X209166667Y-88704819D01*
X209166667Y-88704819D02*
X209071429Y-88657200D01*
X209071429Y-88657200D02*
X209023810Y-88609580D01*
X151166666Y-111954819D02*
X151166666Y-112669104D01*
X151166666Y-112669104D02*
X151119047Y-112811961D01*
X151119047Y-112811961D02*
X151023809Y-112907200D01*
X151023809Y-112907200D02*
X150880952Y-112954819D01*
X150880952Y-112954819D02*
X150785714Y-112954819D01*
X151690476Y-112954819D02*
X151880952Y-112954819D01*
X151880952Y-112954819D02*
X151976190Y-112907200D01*
X151976190Y-112907200D02*
X152023809Y-112859580D01*
X152023809Y-112859580D02*
X152119047Y-112716723D01*
X152119047Y-112716723D02*
X152166666Y-112526247D01*
X152166666Y-112526247D02*
X152166666Y-112145295D01*
X152166666Y-112145295D02*
X152119047Y-112050057D01*
X152119047Y-112050057D02*
X152071428Y-112002438D01*
X152071428Y-112002438D02*
X151976190Y-111954819D01*
X151976190Y-111954819D02*
X151785714Y-111954819D01*
X151785714Y-111954819D02*
X151690476Y-112002438D01*
X151690476Y-112002438D02*
X151642857Y-112050057D01*
X151642857Y-112050057D02*
X151595238Y-112145295D01*
X151595238Y-112145295D02*
X151595238Y-112383390D01*
X151595238Y-112383390D02*
X151642857Y-112478628D01*
X151642857Y-112478628D02*
X151690476Y-112526247D01*
X151690476Y-112526247D02*
X151785714Y-112573866D01*
X151785714Y-112573866D02*
X151976190Y-112573866D01*
X151976190Y-112573866D02*
X152071428Y-112526247D01*
X152071428Y-112526247D02*
X152119047Y-112478628D01*
X152119047Y-112478628D02*
X152166666Y-112383390D01*
X162338095Y-114054819D02*
X162338095Y-113054819D01*
X162338095Y-113531009D02*
X162909523Y-113531009D01*
X162909523Y-114054819D02*
X162909523Y-113054819D01*
X163861904Y-113054819D02*
X163385714Y-113054819D01*
X163385714Y-113054819D02*
X163338095Y-113531009D01*
X163338095Y-113531009D02*
X163385714Y-113483390D01*
X163385714Y-113483390D02*
X163480952Y-113435771D01*
X163480952Y-113435771D02*
X163719047Y-113435771D01*
X163719047Y-113435771D02*
X163814285Y-113483390D01*
X163814285Y-113483390D02*
X163861904Y-113531009D01*
X163861904Y-113531009D02*
X163909523Y-113626247D01*
X163909523Y-113626247D02*
X163909523Y-113864342D01*
X163909523Y-113864342D02*
X163861904Y-113959580D01*
X163861904Y-113959580D02*
X163814285Y-114007200D01*
X163814285Y-114007200D02*
X163719047Y-114054819D01*
X163719047Y-114054819D02*
X163480952Y-114054819D01*
X163480952Y-114054819D02*
X163385714Y-114007200D01*
X163385714Y-114007200D02*
X163338095Y-113959580D01*
X174488095Y-84671819D02*
X175059523Y-84671819D01*
X174773809Y-85671819D02*
X174773809Y-84671819D01*
X175392857Y-85671819D02*
X175392857Y-84671819D01*
X175392857Y-84671819D02*
X175773809Y-84671819D01*
X175773809Y-84671819D02*
X175869047Y-84719438D01*
X175869047Y-84719438D02*
X175916666Y-84767057D01*
X175916666Y-84767057D02*
X175964285Y-84862295D01*
X175964285Y-84862295D02*
X175964285Y-85005152D01*
X175964285Y-85005152D02*
X175916666Y-85100390D01*
X175916666Y-85100390D02*
X175869047Y-85148009D01*
X175869047Y-85148009D02*
X175773809Y-85195628D01*
X175773809Y-85195628D02*
X175392857Y-85195628D01*
X176440476Y-85671819D02*
X176630952Y-85671819D01*
X176630952Y-85671819D02*
X176726190Y-85624200D01*
X176726190Y-85624200D02*
X176773809Y-85576580D01*
X176773809Y-85576580D02*
X176869047Y-85433723D01*
X176869047Y-85433723D02*
X176916666Y-85243247D01*
X176916666Y-85243247D02*
X176916666Y-84862295D01*
X176916666Y-84862295D02*
X176869047Y-84767057D01*
X176869047Y-84767057D02*
X176821428Y-84719438D01*
X176821428Y-84719438D02*
X176726190Y-84671819D01*
X176726190Y-84671819D02*
X176535714Y-84671819D01*
X176535714Y-84671819D02*
X176440476Y-84719438D01*
X176440476Y-84719438D02*
X176392857Y-84767057D01*
X176392857Y-84767057D02*
X176345238Y-84862295D01*
X176345238Y-84862295D02*
X176345238Y-85100390D01*
X176345238Y-85100390D02*
X176392857Y-85195628D01*
X176392857Y-85195628D02*
X176440476Y-85243247D01*
X176440476Y-85243247D02*
X176535714Y-85290866D01*
X176535714Y-85290866D02*
X176726190Y-85290866D01*
X176726190Y-85290866D02*
X176821428Y-85243247D01*
X176821428Y-85243247D02*
X176869047Y-85195628D01*
X176869047Y-85195628D02*
X176916666Y-85100390D01*
X153454819Y-81488094D02*
X152454819Y-81488094D01*
X152454819Y-81488094D02*
X152454819Y-81249999D01*
X152454819Y-81249999D02*
X152502438Y-81107142D01*
X152502438Y-81107142D02*
X152597676Y-81011904D01*
X152597676Y-81011904D02*
X152692914Y-80964285D01*
X152692914Y-80964285D02*
X152883390Y-80916666D01*
X152883390Y-80916666D02*
X153026247Y-80916666D01*
X153026247Y-80916666D02*
X153216723Y-80964285D01*
X153216723Y-80964285D02*
X153311961Y-81011904D01*
X153311961Y-81011904D02*
X153407200Y-81107142D01*
X153407200Y-81107142D02*
X153454819Y-81249999D01*
X153454819Y-81249999D02*
X153454819Y-81488094D01*
X152454819Y-80583332D02*
X152454819Y-79964285D01*
X152454819Y-79964285D02*
X152835771Y-80297618D01*
X152835771Y-80297618D02*
X152835771Y-80154761D01*
X152835771Y-80154761D02*
X152883390Y-80059523D01*
X152883390Y-80059523D02*
X152931009Y-80011904D01*
X152931009Y-80011904D02*
X153026247Y-79964285D01*
X153026247Y-79964285D02*
X153264342Y-79964285D01*
X153264342Y-79964285D02*
X153359580Y-80011904D01*
X153359580Y-80011904D02*
X153407200Y-80059523D01*
X153407200Y-80059523D02*
X153454819Y-80154761D01*
X153454819Y-80154761D02*
X153454819Y-80440475D01*
X153454819Y-80440475D02*
X153407200Y-80535713D01*
X153407200Y-80535713D02*
X153359580Y-80583332D01*
X177046095Y-83204819D02*
X177617523Y-83204819D01*
X177331809Y-84204819D02*
X177331809Y-83204819D01*
X177950857Y-84204819D02*
X177950857Y-83204819D01*
X177950857Y-83204819D02*
X178331809Y-83204819D01*
X178331809Y-83204819D02*
X178427047Y-83252438D01*
X178427047Y-83252438D02*
X178474666Y-83300057D01*
X178474666Y-83300057D02*
X178522285Y-83395295D01*
X178522285Y-83395295D02*
X178522285Y-83538152D01*
X178522285Y-83538152D02*
X178474666Y-83633390D01*
X178474666Y-83633390D02*
X178427047Y-83681009D01*
X178427047Y-83681009D02*
X178331809Y-83728628D01*
X178331809Y-83728628D02*
X177950857Y-83728628D01*
X179379428Y-83204819D02*
X179188952Y-83204819D01*
X179188952Y-83204819D02*
X179093714Y-83252438D01*
X179093714Y-83252438D02*
X179046095Y-83300057D01*
X179046095Y-83300057D02*
X178950857Y-83442914D01*
X178950857Y-83442914D02*
X178903238Y-83633390D01*
X178903238Y-83633390D02*
X178903238Y-84014342D01*
X178903238Y-84014342D02*
X178950857Y-84109580D01*
X178950857Y-84109580D02*
X178998476Y-84157200D01*
X178998476Y-84157200D02*
X179093714Y-84204819D01*
X179093714Y-84204819D02*
X179284190Y-84204819D01*
X179284190Y-84204819D02*
X179379428Y-84157200D01*
X179379428Y-84157200D02*
X179427047Y-84109580D01*
X179427047Y-84109580D02*
X179474666Y-84014342D01*
X179474666Y-84014342D02*
X179474666Y-83776247D01*
X179474666Y-83776247D02*
X179427047Y-83681009D01*
X179427047Y-83681009D02*
X179379428Y-83633390D01*
X179379428Y-83633390D02*
X179284190Y-83585771D01*
X179284190Y-83585771D02*
X179093714Y-83585771D01*
X179093714Y-83585771D02*
X178998476Y-83633390D01*
X178998476Y-83633390D02*
X178950857Y-83681009D01*
X178950857Y-83681009D02*
X178903238Y-83776247D01*
X216988095Y-107754819D02*
X216988095Y-106754819D01*
X216988095Y-107231009D02*
X217559523Y-107231009D01*
X217559523Y-107754819D02*
X217559523Y-106754819D01*
X217988095Y-106850057D02*
X218035714Y-106802438D01*
X218035714Y-106802438D02*
X218130952Y-106754819D01*
X218130952Y-106754819D02*
X218369047Y-106754819D01*
X218369047Y-106754819D02*
X218464285Y-106802438D01*
X218464285Y-106802438D02*
X218511904Y-106850057D01*
X218511904Y-106850057D02*
X218559523Y-106945295D01*
X218559523Y-106945295D02*
X218559523Y-107040533D01*
X218559523Y-107040533D02*
X218511904Y-107183390D01*
X218511904Y-107183390D02*
X217940476Y-107754819D01*
X217940476Y-107754819D02*
X218559523Y-107754819D01*
X199988095Y-97204819D02*
X200559523Y-97204819D01*
X200273809Y-98204819D02*
X200273809Y-97204819D01*
X200892857Y-98204819D02*
X200892857Y-97204819D01*
X200892857Y-97204819D02*
X201273809Y-97204819D01*
X201273809Y-97204819D02*
X201369047Y-97252438D01*
X201369047Y-97252438D02*
X201416666Y-97300057D01*
X201416666Y-97300057D02*
X201464285Y-97395295D01*
X201464285Y-97395295D02*
X201464285Y-97538152D01*
X201464285Y-97538152D02*
X201416666Y-97633390D01*
X201416666Y-97633390D02*
X201369047Y-97681009D01*
X201369047Y-97681009D02*
X201273809Y-97728628D01*
X201273809Y-97728628D02*
X200892857Y-97728628D01*
X202369047Y-97204819D02*
X201892857Y-97204819D01*
X201892857Y-97204819D02*
X201845238Y-97681009D01*
X201845238Y-97681009D02*
X201892857Y-97633390D01*
X201892857Y-97633390D02*
X201988095Y-97585771D01*
X201988095Y-97585771D02*
X202226190Y-97585771D01*
X202226190Y-97585771D02*
X202321428Y-97633390D01*
X202321428Y-97633390D02*
X202369047Y-97681009D01*
X202369047Y-97681009D02*
X202416666Y-97776247D01*
X202416666Y-97776247D02*
X202416666Y-98014342D01*
X202416666Y-98014342D02*
X202369047Y-98109580D01*
X202369047Y-98109580D02*
X202321428Y-98157200D01*
X202321428Y-98157200D02*
X202226190Y-98204819D01*
X202226190Y-98204819D02*
X201988095Y-98204819D01*
X201988095Y-98204819D02*
X201892857Y-98157200D01*
X201892857Y-98157200D02*
X201845238Y-98109580D01*
X183666666Y-80954819D02*
X183666666Y-81669104D01*
X183666666Y-81669104D02*
X183619047Y-81811961D01*
X183619047Y-81811961D02*
X183523809Y-81907200D01*
X183523809Y-81907200D02*
X183380952Y-81954819D01*
X183380952Y-81954819D02*
X183285714Y-81954819D01*
X184095238Y-81050057D02*
X184142857Y-81002438D01*
X184142857Y-81002438D02*
X184238095Y-80954819D01*
X184238095Y-80954819D02*
X184476190Y-80954819D01*
X184476190Y-80954819D02*
X184571428Y-81002438D01*
X184571428Y-81002438D02*
X184619047Y-81050057D01*
X184619047Y-81050057D02*
X184666666Y-81145295D01*
X184666666Y-81145295D02*
X184666666Y-81240533D01*
X184666666Y-81240533D02*
X184619047Y-81383390D01*
X184619047Y-81383390D02*
X184047619Y-81954819D01*
X184047619Y-81954819D02*
X184666666Y-81954819D01*
X162766666Y-110454819D02*
X162766666Y-111169104D01*
X162766666Y-111169104D02*
X162719047Y-111311961D01*
X162719047Y-111311961D02*
X162623809Y-111407200D01*
X162623809Y-111407200D02*
X162480952Y-111454819D01*
X162480952Y-111454819D02*
X162385714Y-111454819D01*
X163147619Y-110454819D02*
X163814285Y-110454819D01*
X163814285Y-110454819D02*
X163385714Y-111454819D01*
X176833333Y-94339580D02*
X176785714Y-94387200D01*
X176785714Y-94387200D02*
X176642857Y-94434819D01*
X176642857Y-94434819D02*
X176547619Y-94434819D01*
X176547619Y-94434819D02*
X176404762Y-94387200D01*
X176404762Y-94387200D02*
X176309524Y-94291961D01*
X176309524Y-94291961D02*
X176261905Y-94196723D01*
X176261905Y-94196723D02*
X176214286Y-94006247D01*
X176214286Y-94006247D02*
X176214286Y-93863390D01*
X176214286Y-93863390D02*
X176261905Y-93672914D01*
X176261905Y-93672914D02*
X176309524Y-93577676D01*
X176309524Y-93577676D02*
X176404762Y-93482438D01*
X176404762Y-93482438D02*
X176547619Y-93434819D01*
X176547619Y-93434819D02*
X176642857Y-93434819D01*
X176642857Y-93434819D02*
X176785714Y-93482438D01*
X176785714Y-93482438D02*
X176833333Y-93530057D01*
X177690476Y-93768152D02*
X177690476Y-94434819D01*
X177452381Y-93387200D02*
X177214286Y-94101485D01*
X177214286Y-94101485D02*
X177833333Y-94101485D01*
X189176819Y-105576666D02*
X188700628Y-105909999D01*
X189176819Y-106148094D02*
X188176819Y-106148094D01*
X188176819Y-106148094D02*
X188176819Y-105767142D01*
X188176819Y-105767142D02*
X188224438Y-105671904D01*
X188224438Y-105671904D02*
X188272057Y-105624285D01*
X188272057Y-105624285D02*
X188367295Y-105576666D01*
X188367295Y-105576666D02*
X188510152Y-105576666D01*
X188510152Y-105576666D02*
X188605390Y-105624285D01*
X188605390Y-105624285D02*
X188653009Y-105671904D01*
X188653009Y-105671904D02*
X188700628Y-105767142D01*
X188700628Y-105767142D02*
X188700628Y-106148094D01*
X188176819Y-105243332D02*
X188176819Y-104576666D01*
X188176819Y-104576666D02*
X189176819Y-105005237D01*
X202261905Y-89454819D02*
X202833333Y-89454819D01*
X202547619Y-90454819D02*
X202547619Y-89454819D01*
X203166667Y-90454819D02*
X203166667Y-89454819D01*
X203166667Y-89454819D02*
X203547619Y-89454819D01*
X203547619Y-89454819D02*
X203642857Y-89502438D01*
X203642857Y-89502438D02*
X203690476Y-89550057D01*
X203690476Y-89550057D02*
X203738095Y-89645295D01*
X203738095Y-89645295D02*
X203738095Y-89788152D01*
X203738095Y-89788152D02*
X203690476Y-89883390D01*
X203690476Y-89883390D02*
X203642857Y-89931009D01*
X203642857Y-89931009D02*
X203547619Y-89978628D01*
X203547619Y-89978628D02*
X203166667Y-89978628D01*
X204690476Y-90454819D02*
X204119048Y-90454819D01*
X204404762Y-90454819D02*
X204404762Y-89454819D01*
X204404762Y-89454819D02*
X204309524Y-89597676D01*
X204309524Y-89597676D02*
X204214286Y-89692914D01*
X204214286Y-89692914D02*
X204119048Y-89740533D01*
X205547619Y-89788152D02*
X205547619Y-90454819D01*
X205309524Y-89407200D02*
X205071429Y-90121485D01*
X205071429Y-90121485D02*
X205690476Y-90121485D01*
X197607142Y-88704819D02*
X197273809Y-88228628D01*
X197035714Y-88704819D02*
X197035714Y-87704819D01*
X197035714Y-87704819D02*
X197416666Y-87704819D01*
X197416666Y-87704819D02*
X197511904Y-87752438D01*
X197511904Y-87752438D02*
X197559523Y-87800057D01*
X197559523Y-87800057D02*
X197607142Y-87895295D01*
X197607142Y-87895295D02*
X197607142Y-88038152D01*
X197607142Y-88038152D02*
X197559523Y-88133390D01*
X197559523Y-88133390D02*
X197511904Y-88181009D01*
X197511904Y-88181009D02*
X197416666Y-88228628D01*
X197416666Y-88228628D02*
X197035714Y-88228628D01*
X198559523Y-88704819D02*
X197988095Y-88704819D01*
X198273809Y-88704819D02*
X198273809Y-87704819D01*
X198273809Y-87704819D02*
X198178571Y-87847676D01*
X198178571Y-87847676D02*
X198083333Y-87942914D01*
X198083333Y-87942914D02*
X197988095Y-87990533D01*
X199511904Y-88704819D02*
X198940476Y-88704819D01*
X199226190Y-88704819D02*
X199226190Y-87704819D01*
X199226190Y-87704819D02*
X199130952Y-87847676D01*
X199130952Y-87847676D02*
X199035714Y-87942914D01*
X199035714Y-87942914D02*
X198940476Y-87990533D01*
X200738095Y-92704819D02*
X201309523Y-92704819D01*
X201023809Y-93704819D02*
X201023809Y-92704819D01*
X201642857Y-93704819D02*
X201642857Y-92704819D01*
X201642857Y-92704819D02*
X202023809Y-92704819D01*
X202023809Y-92704819D02*
X202119047Y-92752438D01*
X202119047Y-92752438D02*
X202166666Y-92800057D01*
X202166666Y-92800057D02*
X202214285Y-92895295D01*
X202214285Y-92895295D02*
X202214285Y-93038152D01*
X202214285Y-93038152D02*
X202166666Y-93133390D01*
X202166666Y-93133390D02*
X202119047Y-93181009D01*
X202119047Y-93181009D02*
X202023809Y-93228628D01*
X202023809Y-93228628D02*
X201642857Y-93228628D01*
X203166666Y-93704819D02*
X202595238Y-93704819D01*
X202880952Y-93704819D02*
X202880952Y-92704819D01*
X202880952Y-92704819D02*
X202785714Y-92847676D01*
X202785714Y-92847676D02*
X202690476Y-92942914D01*
X202690476Y-92942914D02*
X202595238Y-92990533D01*
X208391047Y-112293009D02*
X208533904Y-112340628D01*
X208533904Y-112340628D02*
X208581523Y-112388247D01*
X208581523Y-112388247D02*
X208629142Y-112483485D01*
X208629142Y-112483485D02*
X208629142Y-112626342D01*
X208629142Y-112626342D02*
X208581523Y-112721580D01*
X208581523Y-112721580D02*
X208533904Y-112769200D01*
X208533904Y-112769200D02*
X208438666Y-112816819D01*
X208438666Y-112816819D02*
X208057714Y-112816819D01*
X208057714Y-112816819D02*
X208057714Y-111816819D01*
X208057714Y-111816819D02*
X208391047Y-111816819D01*
X208391047Y-111816819D02*
X208486285Y-111864438D01*
X208486285Y-111864438D02*
X208533904Y-111912057D01*
X208533904Y-111912057D02*
X208581523Y-112007295D01*
X208581523Y-112007295D02*
X208581523Y-112102533D01*
X208581523Y-112102533D02*
X208533904Y-112197771D01*
X208533904Y-112197771D02*
X208486285Y-112245390D01*
X208486285Y-112245390D02*
X208391047Y-112293009D01*
X208391047Y-112293009D02*
X208057714Y-112293009D01*
X208962476Y-111816819D02*
X209629142Y-111816819D01*
X209629142Y-111816819D02*
X208962476Y-112816819D01*
X208962476Y-112816819D02*
X209629142Y-112816819D01*
X210533904Y-112816819D02*
X209962476Y-112816819D01*
X210248190Y-112816819D02*
X210248190Y-111816819D01*
X210248190Y-111816819D02*
X210152952Y-111959676D01*
X210152952Y-111959676D02*
X210057714Y-112054914D01*
X210057714Y-112054914D02*
X209962476Y-112102533D01*
X210679048Y-107863866D02*
X211440953Y-107863866D01*
X211060000Y-108244819D02*
X211060000Y-107482914D01*
X159833333Y-104109580D02*
X159785714Y-104157200D01*
X159785714Y-104157200D02*
X159642857Y-104204819D01*
X159642857Y-104204819D02*
X159547619Y-104204819D01*
X159547619Y-104204819D02*
X159404762Y-104157200D01*
X159404762Y-104157200D02*
X159309524Y-104061961D01*
X159309524Y-104061961D02*
X159261905Y-103966723D01*
X159261905Y-103966723D02*
X159214286Y-103776247D01*
X159214286Y-103776247D02*
X159214286Y-103633390D01*
X159214286Y-103633390D02*
X159261905Y-103442914D01*
X159261905Y-103442914D02*
X159309524Y-103347676D01*
X159309524Y-103347676D02*
X159404762Y-103252438D01*
X159404762Y-103252438D02*
X159547619Y-103204819D01*
X159547619Y-103204819D02*
X159642857Y-103204819D01*
X159642857Y-103204819D02*
X159785714Y-103252438D01*
X159785714Y-103252438D02*
X159833333Y-103300057D01*
X160214286Y-103300057D02*
X160261905Y-103252438D01*
X160261905Y-103252438D02*
X160357143Y-103204819D01*
X160357143Y-103204819D02*
X160595238Y-103204819D01*
X160595238Y-103204819D02*
X160690476Y-103252438D01*
X160690476Y-103252438D02*
X160738095Y-103300057D01*
X160738095Y-103300057D02*
X160785714Y-103395295D01*
X160785714Y-103395295D02*
X160785714Y-103490533D01*
X160785714Y-103490533D02*
X160738095Y-103633390D01*
X160738095Y-103633390D02*
X160166667Y-104204819D01*
X160166667Y-104204819D02*
X160785714Y-104204819D01*
X172533333Y-94459580D02*
X172485714Y-94507200D01*
X172485714Y-94507200D02*
X172342857Y-94554819D01*
X172342857Y-94554819D02*
X172247619Y-94554819D01*
X172247619Y-94554819D02*
X172104762Y-94507200D01*
X172104762Y-94507200D02*
X172009524Y-94411961D01*
X172009524Y-94411961D02*
X171961905Y-94316723D01*
X171961905Y-94316723D02*
X171914286Y-94126247D01*
X171914286Y-94126247D02*
X171914286Y-93983390D01*
X171914286Y-93983390D02*
X171961905Y-93792914D01*
X171961905Y-93792914D02*
X172009524Y-93697676D01*
X172009524Y-93697676D02*
X172104762Y-93602438D01*
X172104762Y-93602438D02*
X172247619Y-93554819D01*
X172247619Y-93554819D02*
X172342857Y-93554819D01*
X172342857Y-93554819D02*
X172485714Y-93602438D01*
X172485714Y-93602438D02*
X172533333Y-93650057D01*
X172866667Y-93554819D02*
X173485714Y-93554819D01*
X173485714Y-93554819D02*
X173152381Y-93935771D01*
X173152381Y-93935771D02*
X173295238Y-93935771D01*
X173295238Y-93935771D02*
X173390476Y-93983390D01*
X173390476Y-93983390D02*
X173438095Y-94031009D01*
X173438095Y-94031009D02*
X173485714Y-94126247D01*
X173485714Y-94126247D02*
X173485714Y-94364342D01*
X173485714Y-94364342D02*
X173438095Y-94459580D01*
X173438095Y-94459580D02*
X173390476Y-94507200D01*
X173390476Y-94507200D02*
X173295238Y-94554819D01*
X173295238Y-94554819D02*
X173009524Y-94554819D01*
X173009524Y-94554819D02*
X172914286Y-94507200D01*
X172914286Y-94507200D02*
X172866667Y-94459580D01*
X198400761Y-101232057D02*
X198305523Y-101184438D01*
X198305523Y-101184438D02*
X198210285Y-101089200D01*
X198210285Y-101089200D02*
X198067428Y-100946342D01*
X198067428Y-100946342D02*
X197972190Y-100898723D01*
X197972190Y-100898723D02*
X197876952Y-100898723D01*
X197924571Y-101136819D02*
X197829333Y-101089200D01*
X197829333Y-101089200D02*
X197734095Y-100993961D01*
X197734095Y-100993961D02*
X197686476Y-100803485D01*
X197686476Y-100803485D02*
X197686476Y-100470152D01*
X197686476Y-100470152D02*
X197734095Y-100279676D01*
X197734095Y-100279676D02*
X197829333Y-100184438D01*
X197829333Y-100184438D02*
X197924571Y-100136819D01*
X197924571Y-100136819D02*
X198115047Y-100136819D01*
X198115047Y-100136819D02*
X198210285Y-100184438D01*
X198210285Y-100184438D02*
X198305523Y-100279676D01*
X198305523Y-100279676D02*
X198353142Y-100470152D01*
X198353142Y-100470152D02*
X198353142Y-100803485D01*
X198353142Y-100803485D02*
X198305523Y-100993961D01*
X198305523Y-100993961D02*
X198210285Y-101089200D01*
X198210285Y-101089200D02*
X198115047Y-101136819D01*
X198115047Y-101136819D02*
X197924571Y-101136819D01*
X199305523Y-101136819D02*
X198734095Y-101136819D01*
X199019809Y-101136819D02*
X199019809Y-100136819D01*
X199019809Y-100136819D02*
X198924571Y-100279676D01*
X198924571Y-100279676D02*
X198829333Y-100374914D01*
X198829333Y-100374914D02*
X198734095Y-100422533D01*
X210238095Y-97454819D02*
X210238095Y-96454819D01*
X210238095Y-96931009D02*
X210809523Y-96931009D01*
X210809523Y-97454819D02*
X210809523Y-96454819D01*
X211714285Y-96788152D02*
X211714285Y-97454819D01*
X211476190Y-96407200D02*
X211238095Y-97121485D01*
X211238095Y-97121485D02*
X211857142Y-97121485D01*
X192488095Y-99704819D02*
X193059523Y-99704819D01*
X192773809Y-100704819D02*
X192773809Y-99704819D01*
X193392857Y-100704819D02*
X193392857Y-99704819D01*
X193392857Y-99704819D02*
X193773809Y-99704819D01*
X193773809Y-99704819D02*
X193869047Y-99752438D01*
X193869047Y-99752438D02*
X193916666Y-99800057D01*
X193916666Y-99800057D02*
X193964285Y-99895295D01*
X193964285Y-99895295D02*
X193964285Y-100038152D01*
X193964285Y-100038152D02*
X193916666Y-100133390D01*
X193916666Y-100133390D02*
X193869047Y-100181009D01*
X193869047Y-100181009D02*
X193773809Y-100228628D01*
X193773809Y-100228628D02*
X193392857Y-100228628D01*
X194821428Y-100038152D02*
X194821428Y-100704819D01*
X194583333Y-99657200D02*
X194345238Y-100371485D01*
X194345238Y-100371485D02*
X194964285Y-100371485D01*
X158583333Y-90704819D02*
X158250000Y-90228628D01*
X158011905Y-90704819D02*
X158011905Y-89704819D01*
X158011905Y-89704819D02*
X158392857Y-89704819D01*
X158392857Y-89704819D02*
X158488095Y-89752438D01*
X158488095Y-89752438D02*
X158535714Y-89800057D01*
X158535714Y-89800057D02*
X158583333Y-89895295D01*
X158583333Y-89895295D02*
X158583333Y-90038152D01*
X158583333Y-90038152D02*
X158535714Y-90133390D01*
X158535714Y-90133390D02*
X158488095Y-90181009D01*
X158488095Y-90181009D02*
X158392857Y-90228628D01*
X158392857Y-90228628D02*
X158011905Y-90228628D01*
X159440476Y-89704819D02*
X159250000Y-89704819D01*
X159250000Y-89704819D02*
X159154762Y-89752438D01*
X159154762Y-89752438D02*
X159107143Y-89800057D01*
X159107143Y-89800057D02*
X159011905Y-89942914D01*
X159011905Y-89942914D02*
X158964286Y-90133390D01*
X158964286Y-90133390D02*
X158964286Y-90514342D01*
X158964286Y-90514342D02*
X159011905Y-90609580D01*
X159011905Y-90609580D02*
X159059524Y-90657200D01*
X159059524Y-90657200D02*
X159154762Y-90704819D01*
X159154762Y-90704819D02*
X159345238Y-90704819D01*
X159345238Y-90704819D02*
X159440476Y-90657200D01*
X159440476Y-90657200D02*
X159488095Y-90609580D01*
X159488095Y-90609580D02*
X159535714Y-90514342D01*
X159535714Y-90514342D02*
X159535714Y-90276247D01*
X159535714Y-90276247D02*
X159488095Y-90181009D01*
X159488095Y-90181009D02*
X159440476Y-90133390D01*
X159440476Y-90133390D02*
X159345238Y-90085771D01*
X159345238Y-90085771D02*
X159154762Y-90085771D01*
X159154762Y-90085771D02*
X159059524Y-90133390D01*
X159059524Y-90133390D02*
X159011905Y-90181009D01*
X159011905Y-90181009D02*
X158964286Y-90276247D01*
X159488095Y-93954819D02*
X159488095Y-92954819D01*
X159488095Y-93431009D02*
X160059523Y-93431009D01*
X160059523Y-93954819D02*
X160059523Y-92954819D01*
X160440476Y-92954819D02*
X161059523Y-92954819D01*
X161059523Y-92954819D02*
X160726190Y-93335771D01*
X160726190Y-93335771D02*
X160869047Y-93335771D01*
X160869047Y-93335771D02*
X160964285Y-93383390D01*
X160964285Y-93383390D02*
X161011904Y-93431009D01*
X161011904Y-93431009D02*
X161059523Y-93526247D01*
X161059523Y-93526247D02*
X161059523Y-93764342D01*
X161059523Y-93764342D02*
X161011904Y-93859580D01*
X161011904Y-93859580D02*
X160964285Y-93907200D01*
X160964285Y-93907200D02*
X160869047Y-93954819D01*
X160869047Y-93954819D02*
X160583333Y-93954819D01*
X160583333Y-93954819D02*
X160488095Y-93907200D01*
X160488095Y-93907200D02*
X160440476Y-93859580D01*
X218704819Y-98416666D02*
X218228628Y-98749999D01*
X218704819Y-98988094D02*
X217704819Y-98988094D01*
X217704819Y-98988094D02*
X217704819Y-98607142D01*
X217704819Y-98607142D02*
X217752438Y-98511904D01*
X217752438Y-98511904D02*
X217800057Y-98464285D01*
X217800057Y-98464285D02*
X217895295Y-98416666D01*
X217895295Y-98416666D02*
X218038152Y-98416666D01*
X218038152Y-98416666D02*
X218133390Y-98464285D01*
X218133390Y-98464285D02*
X218181009Y-98511904D01*
X218181009Y-98511904D02*
X218228628Y-98607142D01*
X218228628Y-98607142D02*
X218228628Y-98988094D01*
X218704819Y-97464285D02*
X218704819Y-98035713D01*
X218704819Y-97749999D02*
X217704819Y-97749999D01*
X217704819Y-97749999D02*
X217847676Y-97845237D01*
X217847676Y-97845237D02*
X217942914Y-97940475D01*
X217942914Y-97940475D02*
X217990533Y-98035713D01*
X176507905Y-105990819D02*
X177079333Y-105990819D01*
X176793619Y-106990819D02*
X176793619Y-105990819D01*
X177412667Y-106990819D02*
X177412667Y-105990819D01*
X177412667Y-105990819D02*
X177793619Y-105990819D01*
X177793619Y-105990819D02*
X177888857Y-106038438D01*
X177888857Y-106038438D02*
X177936476Y-106086057D01*
X177936476Y-106086057D02*
X177984095Y-106181295D01*
X177984095Y-106181295D02*
X177984095Y-106324152D01*
X177984095Y-106324152D02*
X177936476Y-106419390D01*
X177936476Y-106419390D02*
X177888857Y-106467009D01*
X177888857Y-106467009D02*
X177793619Y-106514628D01*
X177793619Y-106514628D02*
X177412667Y-106514628D01*
X178936476Y-106990819D02*
X178365048Y-106990819D01*
X178650762Y-106990819D02*
X178650762Y-105990819D01*
X178650762Y-105990819D02*
X178555524Y-106133676D01*
X178555524Y-106133676D02*
X178460286Y-106228914D01*
X178460286Y-106228914D02*
X178365048Y-106276533D01*
X179888857Y-106990819D02*
X179317429Y-106990819D01*
X179603143Y-106990819D02*
X179603143Y-105990819D01*
X179603143Y-105990819D02*
X179507905Y-106133676D01*
X179507905Y-106133676D02*
X179412667Y-106228914D01*
X179412667Y-106228914D02*
X179317429Y-106276533D01*
X196866667Y-77401200D02*
X197009524Y-77448819D01*
X197009524Y-77448819D02*
X197247619Y-77448819D01*
X197247619Y-77448819D02*
X197342857Y-77401200D01*
X197342857Y-77401200D02*
X197390476Y-77353580D01*
X197390476Y-77353580D02*
X197438095Y-77258342D01*
X197438095Y-77258342D02*
X197438095Y-77163104D01*
X197438095Y-77163104D02*
X197390476Y-77067866D01*
X197390476Y-77067866D02*
X197342857Y-77020247D01*
X197342857Y-77020247D02*
X197247619Y-76972628D01*
X197247619Y-76972628D02*
X197057143Y-76925009D01*
X197057143Y-76925009D02*
X196961905Y-76877390D01*
X196961905Y-76877390D02*
X196914286Y-76829771D01*
X196914286Y-76829771D02*
X196866667Y-76734533D01*
X196866667Y-76734533D02*
X196866667Y-76639295D01*
X196866667Y-76639295D02*
X196914286Y-76544057D01*
X196914286Y-76544057D02*
X196961905Y-76496438D01*
X196961905Y-76496438D02*
X197057143Y-76448819D01*
X197057143Y-76448819D02*
X197295238Y-76448819D01*
X197295238Y-76448819D02*
X197438095Y-76496438D01*
X197771429Y-76448819D02*
X198009524Y-77448819D01*
X198009524Y-77448819D02*
X198200000Y-76734533D01*
X198200000Y-76734533D02*
X198390476Y-77448819D01*
X198390476Y-77448819D02*
X198628572Y-76448819D01*
X199533333Y-77448819D02*
X198961905Y-77448819D01*
X199247619Y-77448819D02*
X199247619Y-76448819D01*
X199247619Y-76448819D02*
X199152381Y-76591676D01*
X199152381Y-76591676D02*
X199057143Y-76686914D01*
X199057143Y-76686914D02*
X198961905Y-76734533D01*
X174259580Y-104266666D02*
X174307200Y-104314285D01*
X174307200Y-104314285D02*
X174354819Y-104457142D01*
X174354819Y-104457142D02*
X174354819Y-104552380D01*
X174354819Y-104552380D02*
X174307200Y-104695237D01*
X174307200Y-104695237D02*
X174211961Y-104790475D01*
X174211961Y-104790475D02*
X174116723Y-104838094D01*
X174116723Y-104838094D02*
X173926247Y-104885713D01*
X173926247Y-104885713D02*
X173783390Y-104885713D01*
X173783390Y-104885713D02*
X173592914Y-104838094D01*
X173592914Y-104838094D02*
X173497676Y-104790475D01*
X173497676Y-104790475D02*
X173402438Y-104695237D01*
X173402438Y-104695237D02*
X173354819Y-104552380D01*
X173354819Y-104552380D02*
X173354819Y-104457142D01*
X173354819Y-104457142D02*
X173402438Y-104314285D01*
X173402438Y-104314285D02*
X173450057Y-104266666D01*
X174354819Y-103314285D02*
X174354819Y-103885713D01*
X174354819Y-103599999D02*
X173354819Y-103599999D01*
X173354819Y-103599999D02*
X173497676Y-103695237D01*
X173497676Y-103695237D02*
X173592914Y-103790475D01*
X173592914Y-103790475D02*
X173640533Y-103885713D01*
X180515905Y-105990819D02*
X181087333Y-105990819D01*
X180801619Y-106990819D02*
X180801619Y-105990819D01*
X181420667Y-106990819D02*
X181420667Y-105990819D01*
X181420667Y-105990819D02*
X181801619Y-105990819D01*
X181801619Y-105990819D02*
X181896857Y-106038438D01*
X181896857Y-106038438D02*
X181944476Y-106086057D01*
X181944476Y-106086057D02*
X181992095Y-106181295D01*
X181992095Y-106181295D02*
X181992095Y-106324152D01*
X181992095Y-106324152D02*
X181944476Y-106419390D01*
X181944476Y-106419390D02*
X181896857Y-106467009D01*
X181896857Y-106467009D02*
X181801619Y-106514628D01*
X181801619Y-106514628D02*
X181420667Y-106514628D01*
X182944476Y-106990819D02*
X182373048Y-106990819D01*
X182658762Y-106990819D02*
X182658762Y-105990819D01*
X182658762Y-105990819D02*
X182563524Y-106133676D01*
X182563524Y-106133676D02*
X182468286Y-106228914D01*
X182468286Y-106228914D02*
X182373048Y-106276533D01*
X183325429Y-106086057D02*
X183373048Y-106038438D01*
X183373048Y-106038438D02*
X183468286Y-105990819D01*
X183468286Y-105990819D02*
X183706381Y-105990819D01*
X183706381Y-105990819D02*
X183801619Y-106038438D01*
X183801619Y-106038438D02*
X183849238Y-106086057D01*
X183849238Y-106086057D02*
X183896857Y-106181295D01*
X183896857Y-106181295D02*
X183896857Y-106276533D01*
X183896857Y-106276533D02*
X183849238Y-106419390D01*
X183849238Y-106419390D02*
X183277810Y-106990819D01*
X183277810Y-106990819D02*
X183896857Y-106990819D01*
X196011905Y-93204819D02*
X196583333Y-93204819D01*
X196297619Y-94204819D02*
X196297619Y-93204819D01*
X196916667Y-94204819D02*
X196916667Y-93204819D01*
X196916667Y-93204819D02*
X197297619Y-93204819D01*
X197297619Y-93204819D02*
X197392857Y-93252438D01*
X197392857Y-93252438D02*
X197440476Y-93300057D01*
X197440476Y-93300057D02*
X197488095Y-93395295D01*
X197488095Y-93395295D02*
X197488095Y-93538152D01*
X197488095Y-93538152D02*
X197440476Y-93633390D01*
X197440476Y-93633390D02*
X197392857Y-93681009D01*
X197392857Y-93681009D02*
X197297619Y-93728628D01*
X197297619Y-93728628D02*
X196916667Y-93728628D01*
X198440476Y-94204819D02*
X197869048Y-94204819D01*
X198154762Y-94204819D02*
X198154762Y-93204819D01*
X198154762Y-93204819D02*
X198059524Y-93347676D01*
X198059524Y-93347676D02*
X197964286Y-93442914D01*
X197964286Y-93442914D02*
X197869048Y-93490533D01*
X199345238Y-93204819D02*
X198869048Y-93204819D01*
X198869048Y-93204819D02*
X198821429Y-93681009D01*
X198821429Y-93681009D02*
X198869048Y-93633390D01*
X198869048Y-93633390D02*
X198964286Y-93585771D01*
X198964286Y-93585771D02*
X199202381Y-93585771D01*
X199202381Y-93585771D02*
X199297619Y-93633390D01*
X199297619Y-93633390D02*
X199345238Y-93681009D01*
X199345238Y-93681009D02*
X199392857Y-93776247D01*
X199392857Y-93776247D02*
X199392857Y-94014342D01*
X199392857Y-94014342D02*
X199345238Y-94109580D01*
X199345238Y-94109580D02*
X199297619Y-94157200D01*
X199297619Y-94157200D02*
X199202381Y-94204819D01*
X199202381Y-94204819D02*
X198964286Y-94204819D01*
X198964286Y-94204819D02*
X198869048Y-94157200D01*
X198869048Y-94157200D02*
X198821429Y-94109580D01*
X152454819Y-86083333D02*
X153169104Y-86083333D01*
X153169104Y-86083333D02*
X153311961Y-86130952D01*
X153311961Y-86130952D02*
X153407200Y-86226190D01*
X153407200Y-86226190D02*
X153454819Y-86369047D01*
X153454819Y-86369047D02*
X153454819Y-86464285D01*
X153454819Y-85083333D02*
X153454819Y-85654761D01*
X153454819Y-85369047D02*
X152454819Y-85369047D01*
X152454819Y-85369047D02*
X152597676Y-85464285D01*
X152597676Y-85464285D02*
X152692914Y-85559523D01*
X152692914Y-85559523D02*
X152740533Y-85654761D01*
X212416666Y-81454819D02*
X212416666Y-82169104D01*
X212416666Y-82169104D02*
X212369047Y-82311961D01*
X212369047Y-82311961D02*
X212273809Y-82407200D01*
X212273809Y-82407200D02*
X212130952Y-82454819D01*
X212130952Y-82454819D02*
X212035714Y-82454819D01*
X213321428Y-81454819D02*
X213130952Y-81454819D01*
X213130952Y-81454819D02*
X213035714Y-81502438D01*
X213035714Y-81502438D02*
X212988095Y-81550057D01*
X212988095Y-81550057D02*
X212892857Y-81692914D01*
X212892857Y-81692914D02*
X212845238Y-81883390D01*
X212845238Y-81883390D02*
X212845238Y-82264342D01*
X212845238Y-82264342D02*
X212892857Y-82359580D01*
X212892857Y-82359580D02*
X212940476Y-82407200D01*
X212940476Y-82407200D02*
X213035714Y-82454819D01*
X213035714Y-82454819D02*
X213226190Y-82454819D01*
X213226190Y-82454819D02*
X213321428Y-82407200D01*
X213321428Y-82407200D02*
X213369047Y-82359580D01*
X213369047Y-82359580D02*
X213416666Y-82264342D01*
X213416666Y-82264342D02*
X213416666Y-82026247D01*
X213416666Y-82026247D02*
X213369047Y-81931009D01*
X213369047Y-81931009D02*
X213321428Y-81883390D01*
X213321428Y-81883390D02*
X213226190Y-81835771D01*
X213226190Y-81835771D02*
X213035714Y-81835771D01*
X213035714Y-81835771D02*
X212940476Y-81883390D01*
X212940476Y-81883390D02*
X212892857Y-81931009D01*
X212892857Y-81931009D02*
X212845238Y-82026247D01*
X169505333Y-83766819D02*
X169172000Y-83290628D01*
X168933905Y-83766819D02*
X168933905Y-82766819D01*
X168933905Y-82766819D02*
X169314857Y-82766819D01*
X169314857Y-82766819D02*
X169410095Y-82814438D01*
X169410095Y-82814438D02*
X169457714Y-82862057D01*
X169457714Y-82862057D02*
X169505333Y-82957295D01*
X169505333Y-82957295D02*
X169505333Y-83100152D01*
X169505333Y-83100152D02*
X169457714Y-83195390D01*
X169457714Y-83195390D02*
X169410095Y-83243009D01*
X169410095Y-83243009D02*
X169314857Y-83290628D01*
X169314857Y-83290628D02*
X168933905Y-83290628D01*
X170362476Y-83100152D02*
X170362476Y-83766819D01*
X170124381Y-82719200D02*
X169886286Y-83433485D01*
X169886286Y-83433485D02*
X170505333Y-83433485D01*
X186466667Y-77407200D02*
X186609524Y-77454819D01*
X186609524Y-77454819D02*
X186847619Y-77454819D01*
X186847619Y-77454819D02*
X186942857Y-77407200D01*
X186942857Y-77407200D02*
X186990476Y-77359580D01*
X186990476Y-77359580D02*
X187038095Y-77264342D01*
X187038095Y-77264342D02*
X187038095Y-77169104D01*
X187038095Y-77169104D02*
X186990476Y-77073866D01*
X186990476Y-77073866D02*
X186942857Y-77026247D01*
X186942857Y-77026247D02*
X186847619Y-76978628D01*
X186847619Y-76978628D02*
X186657143Y-76931009D01*
X186657143Y-76931009D02*
X186561905Y-76883390D01*
X186561905Y-76883390D02*
X186514286Y-76835771D01*
X186514286Y-76835771D02*
X186466667Y-76740533D01*
X186466667Y-76740533D02*
X186466667Y-76645295D01*
X186466667Y-76645295D02*
X186514286Y-76550057D01*
X186514286Y-76550057D02*
X186561905Y-76502438D01*
X186561905Y-76502438D02*
X186657143Y-76454819D01*
X186657143Y-76454819D02*
X186895238Y-76454819D01*
X186895238Y-76454819D02*
X187038095Y-76502438D01*
X187371429Y-76454819D02*
X187609524Y-77454819D01*
X187609524Y-77454819D02*
X187800000Y-76740533D01*
X187800000Y-76740533D02*
X187990476Y-77454819D01*
X187990476Y-77454819D02*
X188228572Y-76454819D01*
X188561905Y-76550057D02*
X188609524Y-76502438D01*
X188609524Y-76502438D02*
X188704762Y-76454819D01*
X188704762Y-76454819D02*
X188942857Y-76454819D01*
X188942857Y-76454819D02*
X189038095Y-76502438D01*
X189038095Y-76502438D02*
X189085714Y-76550057D01*
X189085714Y-76550057D02*
X189133333Y-76645295D01*
X189133333Y-76645295D02*
X189133333Y-76740533D01*
X189133333Y-76740533D02*
X189085714Y-76883390D01*
X189085714Y-76883390D02*
X188514286Y-77454819D01*
X188514286Y-77454819D02*
X189133333Y-77454819D01*
X171988095Y-90954819D02*
X172559523Y-90954819D01*
X172273809Y-91954819D02*
X172273809Y-90954819D01*
X172892857Y-91954819D02*
X172892857Y-90954819D01*
X172892857Y-90954819D02*
X173273809Y-90954819D01*
X173273809Y-90954819D02*
X173369047Y-91002438D01*
X173369047Y-91002438D02*
X173416666Y-91050057D01*
X173416666Y-91050057D02*
X173464285Y-91145295D01*
X173464285Y-91145295D02*
X173464285Y-91288152D01*
X173464285Y-91288152D02*
X173416666Y-91383390D01*
X173416666Y-91383390D02*
X173369047Y-91431009D01*
X173369047Y-91431009D02*
X173273809Y-91478628D01*
X173273809Y-91478628D02*
X172892857Y-91478628D01*
X173797619Y-90954819D02*
X174416666Y-90954819D01*
X174416666Y-90954819D02*
X174083333Y-91335771D01*
X174083333Y-91335771D02*
X174226190Y-91335771D01*
X174226190Y-91335771D02*
X174321428Y-91383390D01*
X174321428Y-91383390D02*
X174369047Y-91431009D01*
X174369047Y-91431009D02*
X174416666Y-91526247D01*
X174416666Y-91526247D02*
X174416666Y-91764342D01*
X174416666Y-91764342D02*
X174369047Y-91859580D01*
X174369047Y-91859580D02*
X174321428Y-91907200D01*
X174321428Y-91907200D02*
X174226190Y-91954819D01*
X174226190Y-91954819D02*
X173940476Y-91954819D01*
X173940476Y-91954819D02*
X173845238Y-91907200D01*
X173845238Y-91907200D02*
X173797619Y-91859580D01*
X170833333Y-89609580D02*
X170785714Y-89657200D01*
X170785714Y-89657200D02*
X170642857Y-89704819D01*
X170642857Y-89704819D02*
X170547619Y-89704819D01*
X170547619Y-89704819D02*
X170404762Y-89657200D01*
X170404762Y-89657200D02*
X170309524Y-89561961D01*
X170309524Y-89561961D02*
X170261905Y-89466723D01*
X170261905Y-89466723D02*
X170214286Y-89276247D01*
X170214286Y-89276247D02*
X170214286Y-89133390D01*
X170214286Y-89133390D02*
X170261905Y-88942914D01*
X170261905Y-88942914D02*
X170309524Y-88847676D01*
X170309524Y-88847676D02*
X170404762Y-88752438D01*
X170404762Y-88752438D02*
X170547619Y-88704819D01*
X170547619Y-88704819D02*
X170642857Y-88704819D01*
X170642857Y-88704819D02*
X170785714Y-88752438D01*
X170785714Y-88752438D02*
X170833333Y-88800057D01*
X171309524Y-89704819D02*
X171500000Y-89704819D01*
X171500000Y-89704819D02*
X171595238Y-89657200D01*
X171595238Y-89657200D02*
X171642857Y-89609580D01*
X171642857Y-89609580D02*
X171738095Y-89466723D01*
X171738095Y-89466723D02*
X171785714Y-89276247D01*
X171785714Y-89276247D02*
X171785714Y-88895295D01*
X171785714Y-88895295D02*
X171738095Y-88800057D01*
X171738095Y-88800057D02*
X171690476Y-88752438D01*
X171690476Y-88752438D02*
X171595238Y-88704819D01*
X171595238Y-88704819D02*
X171404762Y-88704819D01*
X171404762Y-88704819D02*
X171309524Y-88752438D01*
X171309524Y-88752438D02*
X171261905Y-88800057D01*
X171261905Y-88800057D02*
X171214286Y-88895295D01*
X171214286Y-88895295D02*
X171214286Y-89133390D01*
X171214286Y-89133390D02*
X171261905Y-89228628D01*
X171261905Y-89228628D02*
X171309524Y-89276247D01*
X171309524Y-89276247D02*
X171404762Y-89323866D01*
X171404762Y-89323866D02*
X171595238Y-89323866D01*
X171595238Y-89323866D02*
X171690476Y-89276247D01*
X171690476Y-89276247D02*
X171738095Y-89228628D01*
X171738095Y-89228628D02*
X171785714Y-89133390D01*
X165466667Y-115607200D02*
X165609524Y-115654819D01*
X165609524Y-115654819D02*
X165847619Y-115654819D01*
X165847619Y-115654819D02*
X165942857Y-115607200D01*
X165942857Y-115607200D02*
X165990476Y-115559580D01*
X165990476Y-115559580D02*
X166038095Y-115464342D01*
X166038095Y-115464342D02*
X166038095Y-115369104D01*
X166038095Y-115369104D02*
X165990476Y-115273866D01*
X165990476Y-115273866D02*
X165942857Y-115226247D01*
X165942857Y-115226247D02*
X165847619Y-115178628D01*
X165847619Y-115178628D02*
X165657143Y-115131009D01*
X165657143Y-115131009D02*
X165561905Y-115083390D01*
X165561905Y-115083390D02*
X165514286Y-115035771D01*
X165514286Y-115035771D02*
X165466667Y-114940533D01*
X165466667Y-114940533D02*
X165466667Y-114845295D01*
X165466667Y-114845295D02*
X165514286Y-114750057D01*
X165514286Y-114750057D02*
X165561905Y-114702438D01*
X165561905Y-114702438D02*
X165657143Y-114654819D01*
X165657143Y-114654819D02*
X165895238Y-114654819D01*
X165895238Y-114654819D02*
X166038095Y-114702438D01*
X166371429Y-114654819D02*
X166609524Y-115654819D01*
X166609524Y-115654819D02*
X166800000Y-114940533D01*
X166800000Y-114940533D02*
X166990476Y-115654819D01*
X166990476Y-115654819D02*
X167228572Y-114654819D01*
X167514286Y-114654819D02*
X168133333Y-114654819D01*
X168133333Y-114654819D02*
X167800000Y-115035771D01*
X167800000Y-115035771D02*
X167942857Y-115035771D01*
X167942857Y-115035771D02*
X168038095Y-115083390D01*
X168038095Y-115083390D02*
X168085714Y-115131009D01*
X168085714Y-115131009D02*
X168133333Y-115226247D01*
X168133333Y-115226247D02*
X168133333Y-115464342D01*
X168133333Y-115464342D02*
X168085714Y-115559580D01*
X168085714Y-115559580D02*
X168038095Y-115607200D01*
X168038095Y-115607200D02*
X167942857Y-115654819D01*
X167942857Y-115654819D02*
X167657143Y-115654819D01*
X167657143Y-115654819D02*
X167561905Y-115607200D01*
X167561905Y-115607200D02*
X167514286Y-115559580D01*
X160107142Y-77454819D02*
X159773809Y-76978628D01*
X159535714Y-77454819D02*
X159535714Y-76454819D01*
X159535714Y-76454819D02*
X159916666Y-76454819D01*
X159916666Y-76454819D02*
X160011904Y-76502438D01*
X160011904Y-76502438D02*
X160059523Y-76550057D01*
X160059523Y-76550057D02*
X160107142Y-76645295D01*
X160107142Y-76645295D02*
X160107142Y-76788152D01*
X160107142Y-76788152D02*
X160059523Y-76883390D01*
X160059523Y-76883390D02*
X160011904Y-76931009D01*
X160011904Y-76931009D02*
X159916666Y-76978628D01*
X159916666Y-76978628D02*
X159535714Y-76978628D01*
X161059523Y-77454819D02*
X160488095Y-77454819D01*
X160773809Y-77454819D02*
X160773809Y-76454819D01*
X160773809Y-76454819D02*
X160678571Y-76597676D01*
X160678571Y-76597676D02*
X160583333Y-76692914D01*
X160583333Y-76692914D02*
X160488095Y-76740533D01*
X161678571Y-76454819D02*
X161773809Y-76454819D01*
X161773809Y-76454819D02*
X161869047Y-76502438D01*
X161869047Y-76502438D02*
X161916666Y-76550057D01*
X161916666Y-76550057D02*
X161964285Y-76645295D01*
X161964285Y-76645295D02*
X162011904Y-76835771D01*
X162011904Y-76835771D02*
X162011904Y-77073866D01*
X162011904Y-77073866D02*
X161964285Y-77264342D01*
X161964285Y-77264342D02*
X161916666Y-77359580D01*
X161916666Y-77359580D02*
X161869047Y-77407200D01*
X161869047Y-77407200D02*
X161773809Y-77454819D01*
X161773809Y-77454819D02*
X161678571Y-77454819D01*
X161678571Y-77454819D02*
X161583333Y-77407200D01*
X161583333Y-77407200D02*
X161535714Y-77359580D01*
X161535714Y-77359580D02*
X161488095Y-77264342D01*
X161488095Y-77264342D02*
X161440476Y-77073866D01*
X161440476Y-77073866D02*
X161440476Y-76835771D01*
X161440476Y-76835771D02*
X161488095Y-76645295D01*
X161488095Y-76645295D02*
X161535714Y-76550057D01*
X161535714Y-76550057D02*
X161583333Y-76502438D01*
X161583333Y-76502438D02*
X161678571Y-76454819D01*
X176988095Y-81704819D02*
X177559523Y-81704819D01*
X177273809Y-82704819D02*
X177273809Y-81704819D01*
X177892857Y-82704819D02*
X177892857Y-81704819D01*
X177892857Y-81704819D02*
X178273809Y-81704819D01*
X178273809Y-81704819D02*
X178369047Y-81752438D01*
X178369047Y-81752438D02*
X178416666Y-81800057D01*
X178416666Y-81800057D02*
X178464285Y-81895295D01*
X178464285Y-81895295D02*
X178464285Y-82038152D01*
X178464285Y-82038152D02*
X178416666Y-82133390D01*
X178416666Y-82133390D02*
X178369047Y-82181009D01*
X178369047Y-82181009D02*
X178273809Y-82228628D01*
X178273809Y-82228628D02*
X177892857Y-82228628D01*
X178797619Y-81704819D02*
X179464285Y-81704819D01*
X179464285Y-81704819D02*
X179035714Y-82704819D01*
X197635905Y-115420819D02*
X197635905Y-114420819D01*
X197635905Y-114420819D02*
X197874000Y-114420819D01*
X197874000Y-114420819D02*
X198016857Y-114468438D01*
X198016857Y-114468438D02*
X198112095Y-114563676D01*
X198112095Y-114563676D02*
X198159714Y-114658914D01*
X198159714Y-114658914D02*
X198207333Y-114849390D01*
X198207333Y-114849390D02*
X198207333Y-114992247D01*
X198207333Y-114992247D02*
X198159714Y-115182723D01*
X198159714Y-115182723D02*
X198112095Y-115277961D01*
X198112095Y-115277961D02*
X198016857Y-115373200D01*
X198016857Y-115373200D02*
X197874000Y-115420819D01*
X197874000Y-115420819D02*
X197635905Y-115420819D01*
X198588286Y-114516057D02*
X198635905Y-114468438D01*
X198635905Y-114468438D02*
X198731143Y-114420819D01*
X198731143Y-114420819D02*
X198969238Y-114420819D01*
X198969238Y-114420819D02*
X199064476Y-114468438D01*
X199064476Y-114468438D02*
X199112095Y-114516057D01*
X199112095Y-114516057D02*
X199159714Y-114611295D01*
X199159714Y-114611295D02*
X199159714Y-114706533D01*
X199159714Y-114706533D02*
X199112095Y-114849390D01*
X199112095Y-114849390D02*
X198540667Y-115420819D01*
X198540667Y-115420819D02*
X199159714Y-115420819D01*
X218954819Y-103416666D02*
X218478628Y-103749999D01*
X218954819Y-103988094D02*
X217954819Y-103988094D01*
X217954819Y-103988094D02*
X217954819Y-103607142D01*
X217954819Y-103607142D02*
X218002438Y-103511904D01*
X218002438Y-103511904D02*
X218050057Y-103464285D01*
X218050057Y-103464285D02*
X218145295Y-103416666D01*
X218145295Y-103416666D02*
X218288152Y-103416666D01*
X218288152Y-103416666D02*
X218383390Y-103464285D01*
X218383390Y-103464285D02*
X218431009Y-103511904D01*
X218431009Y-103511904D02*
X218478628Y-103607142D01*
X218478628Y-103607142D02*
X218478628Y-103988094D01*
X218050057Y-103035713D02*
X218002438Y-102988094D01*
X218002438Y-102988094D02*
X217954819Y-102892856D01*
X217954819Y-102892856D02*
X217954819Y-102654761D01*
X217954819Y-102654761D02*
X218002438Y-102559523D01*
X218002438Y-102559523D02*
X218050057Y-102511904D01*
X218050057Y-102511904D02*
X218145295Y-102464285D01*
X218145295Y-102464285D02*
X218240533Y-102464285D01*
X218240533Y-102464285D02*
X218383390Y-102511904D01*
X218383390Y-102511904D02*
X218954819Y-103083332D01*
X218954819Y-103083332D02*
X218954819Y-102464285D01*
D11*
%TO.C,TP2*%
X179762000Y-89408000D02*
G75*
G02*
X177362000Y-89408000I-1200000J0D01*
G01*
X177362000Y-89408000D02*
G75*
G02*
X179762000Y-89408000I1200000J0D01*
G01*
%TO.C,R3*%
X202954936Y-112120000D02*
X204409064Y-112120000D01*
X202954936Y-113940000D02*
X204409064Y-113940000D01*
%TO.C,SW4*%
X176638000Y-110250000D02*
X176638000Y-111750000D01*
X177888000Y-114250000D02*
X182388000Y-114250000D01*
X182388000Y-107750000D02*
X177888000Y-107750000D01*
X183638000Y-111750000D02*
X183638000Y-110250000D01*
%TO.C,R8*%
X159222936Y-98840000D02*
X160677064Y-98840000D01*
X159222936Y-100660000D02*
X160677064Y-100660000D01*
%TO.C,SW5*%
X186798000Y-110250000D02*
X186798000Y-111750000D01*
X188048000Y-114250000D02*
X192548000Y-114250000D01*
X192548000Y-107750000D02*
X188048000Y-107750000D01*
X193798000Y-111750000D02*
X193798000Y-110250000D01*
%TO.C,U1*%
X183334000Y-92402000D02*
X183334000Y-92702000D01*
X183334000Y-99622000D02*
X183334000Y-99322000D01*
X183634000Y-92402000D02*
X183334000Y-92402000D01*
X183634000Y-99622000D02*
X183334000Y-99622000D01*
X190254000Y-92402000D02*
X190554000Y-92402000D01*
X190254000Y-99622000D02*
X190554000Y-99622000D01*
X190554000Y-92402000D02*
X190554000Y-92702000D01*
X190554000Y-99622000D02*
X190554000Y-99322000D01*
X182731500Y-92702000D02*
X182391500Y-92232000D01*
X183071500Y-92232000D01*
X182731500Y-92702000D01*
G36*
X182731500Y-92702000D02*
G01*
X182391500Y-92232000D01*
X183071500Y-92232000D01*
X182731500Y-92702000D01*
G37*
%TO.C,C10*%
X155340000Y-87648752D02*
X155340000Y-86226248D01*
X157160000Y-87648752D02*
X157160000Y-86226248D01*
%TO.C,J3*%
X167834000Y-80578000D02*
X167834000Y-79248000D01*
X169164000Y-80578000D02*
X167834000Y-80578000D01*
X170434000Y-77918000D02*
X173034000Y-77918000D01*
X170434000Y-80578000D02*
X170434000Y-77918000D01*
X170434000Y-80578000D02*
X173034000Y-80578000D01*
X173034000Y-80578000D02*
X173034000Y-77918000D01*
%TO.C,TP8*%
X184450000Y-85000000D02*
G75*
G02*
X182050000Y-85000000I-1200000J0D01*
G01*
X182050000Y-85000000D02*
G75*
G02*
X184450000Y-85000000I1200000J0D01*
G01*
%TO.C,R5*%
X205840000Y-94772936D02*
X205840000Y-96227064D01*
X207660000Y-94772936D02*
X207660000Y-96227064D01*
%TO.C,R9*%
X164272936Y-98840000D02*
X165727064Y-98840000D01*
X164272936Y-100660000D02*
X165727064Y-100660000D01*
%TO.C,J4*%
X149170000Y-94145000D02*
X150500000Y-94145000D01*
X149170000Y-95475000D02*
X149170000Y-94145000D01*
X149170000Y-96745000D02*
X149170000Y-99345000D01*
X149170000Y-96745000D02*
X151830000Y-96745000D01*
X149170000Y-99345000D02*
X151830000Y-99345000D01*
X151830000Y-96745000D02*
X151830000Y-99345000D01*
%TO.C,C8*%
X193340000Y-88211252D02*
X193340000Y-86788748D01*
X195160000Y-88211252D02*
X195160000Y-86788748D01*
%TO.C,TP10*%
X182810000Y-90043000D02*
G75*
G02*
X180410000Y-90043000I-1200000J0D01*
G01*
X180410000Y-90043000D02*
G75*
G02*
X182810000Y-90043000I1200000J0D01*
G01*
%TO.C,D1*%
X160510000Y-97000000D02*
X161530000Y-97000000D01*
X161530000Y-95530000D02*
X161530000Y-98470000D01*
X161530000Y-98470000D02*
X166970000Y-98470000D01*
X165950000Y-98470000D02*
X165950000Y-95530000D01*
X166070000Y-98470000D02*
X166070000Y-95530000D01*
X166190000Y-98470000D02*
X166190000Y-95530000D01*
X166970000Y-95530000D02*
X161530000Y-95530000D01*
X166970000Y-98470000D02*
X166970000Y-95530000D01*
X167990000Y-97000000D02*
X166970000Y-97000000D01*
%TO.C,D4*%
X159960000Y-79690000D02*
X159960000Y-81810000D01*
X159960000Y-79690000D02*
X160170000Y-79690000D01*
X159960000Y-81810000D02*
X160170000Y-81810000D01*
X160080000Y-79690000D02*
X160080000Y-81810000D01*
X162330000Y-79690000D02*
X163061000Y-79690000D01*
X162330000Y-81810000D02*
X163061000Y-81810000D01*
X164520000Y-79690000D02*
X165080000Y-79690000D01*
X164520000Y-81810000D02*
X165080000Y-81810000D01*
X165080000Y-79690000D02*
X165080000Y-81810000D01*
D12*
%TO.C,J8*%
X209939500Y-89456000D02*
X209939500Y-95044000D01*
X221560000Y-89456000D02*
X209939500Y-89456000D01*
X221623500Y-95044000D02*
X209939500Y-95044000D01*
D11*
%TO.C,U3*%
X163617000Y-87782000D02*
X165417000Y-87782000D01*
X164617000Y-84562000D02*
X163817000Y-84562000D01*
X164617000Y-84562000D02*
X165417000Y-84562000D01*
X163317000Y-84612000D02*
X163077000Y-84282000D01*
X163557000Y-84282000D01*
X163317000Y-84612000D01*
G36*
X163317000Y-84612000D02*
G01*
X163077000Y-84282000D01*
X163557000Y-84282000D01*
X163317000Y-84612000D01*
G37*
%TO.C,U2*%
X166150000Y-102180000D02*
X166150000Y-105780000D01*
X166161522Y-102141522D02*
G75*
G02*
X170600001Y-103980000I1838478J-1838478D01*
G01*
X170600000Y-103980000D02*
G75*
G02*
X166161522Y-105818478I-2600000J0D01*
G01*
%TO.C,TP13*%
X205950000Y-87250000D02*
G75*
G02*
X203550000Y-87250000I-1200000J0D01*
G01*
X203550000Y-87250000D02*
G75*
G02*
X205950000Y-87250000I1200000J0D01*
G01*
%TO.C,J9*%
X151180500Y-101580000D02*
X152450500Y-101580000D01*
X151180500Y-110920000D02*
X152450500Y-110920000D01*
%TO.C,TP9*%
X177349000Y-87249000D02*
G75*
G02*
X174949000Y-87249000I-1200000J0D01*
G01*
X174949000Y-87249000D02*
G75*
G02*
X177349000Y-87249000I1200000J0D01*
G01*
%TO.C,D3*%
X153935000Y-79690000D02*
X153935000Y-81810000D01*
X153935000Y-79690000D02*
X154145000Y-79690000D01*
X153935000Y-81810000D02*
X154145000Y-81810000D01*
X154055000Y-79690000D02*
X154055000Y-81810000D01*
X156305000Y-79690000D02*
X157036000Y-79690000D01*
X156305000Y-81810000D02*
X157036000Y-81810000D01*
X158495000Y-79690000D02*
X159055000Y-79690000D01*
X158495000Y-81810000D02*
X159055000Y-81810000D01*
X159055000Y-79690000D02*
X159055000Y-81810000D01*
%TO.C,TP6*%
X180143000Y-85852000D02*
G75*
G02*
X177743000Y-85852000I-1200000J0D01*
G01*
X177743000Y-85852000D02*
G75*
G02*
X180143000Y-85852000I1200000J0D01*
G01*
%TO.C,TP5*%
X202450000Y-99750000D02*
G75*
G02*
X200050000Y-99750000I-1200000J0D01*
G01*
X200050000Y-99750000D02*
G75*
G02*
X202450000Y-99750000I1200000J0D01*
G01*
%TO.C,J2*%
X174692000Y-77918000D02*
X174692000Y-80578000D01*
X182372000Y-77918000D02*
X174692000Y-77918000D01*
X182372000Y-77918000D02*
X182372000Y-80578000D01*
X182372000Y-80578000D02*
X174692000Y-80578000D01*
X183642000Y-77918000D02*
X184972000Y-77918000D01*
X184972000Y-77918000D02*
X184972000Y-79248000D01*
%TO.C,J7*%
X161920000Y-107270000D02*
X161920000Y-104670000D01*
X164580000Y-104670000D02*
X161920000Y-104670000D01*
X164580000Y-107270000D02*
X161920000Y-107270000D01*
X164580000Y-107270000D02*
X164580000Y-104670000D01*
X164580000Y-108540000D02*
X164580000Y-109870000D01*
X164580000Y-109870000D02*
X163250000Y-109870000D01*
%TO.C,C4*%
X176090000Y-96570748D02*
X176090000Y-97993252D01*
X177910000Y-96570748D02*
X177910000Y-97993252D01*
%TO.C,R7*%
X191270936Y-104500000D02*
X192725064Y-104500000D01*
X191270936Y-106320000D02*
X192725064Y-106320000D01*
%TO.C,TP14*%
X201950000Y-90000000D02*
G75*
G02*
X199550000Y-90000000I-1200000J0D01*
G01*
X199550000Y-90000000D02*
G75*
G02*
X201950000Y-90000000I1200000J0D01*
G01*
%TO.C,R11*%
X198890936Y-85450000D02*
X200345064Y-85450000D01*
X198890936Y-87270000D02*
X200345064Y-87270000D01*
%TO.C,TP1*%
X203200000Y-95250000D02*
G75*
G02*
X200800000Y-95250000I-1200000J0D01*
G01*
X200800000Y-95250000D02*
G75*
G02*
X203200000Y-95250000I1200000J0D01*
G01*
%TO.C,BZ1*%
X213350000Y-105250000D02*
G75*
G02*
X201150000Y-105250000I-6100000J0D01*
G01*
X201150000Y-105250000D02*
G75*
G02*
X213350000Y-105250000I6100000J0D01*
G01*
%TO.C,C2*%
X162538748Y-101840000D02*
X163961252Y-101840000D01*
X162538748Y-103660000D02*
X163961252Y-103660000D01*
%TO.C,C3*%
X173590000Y-96570748D02*
X173590000Y-97993252D01*
X175410000Y-96570748D02*
X175410000Y-97993252D01*
%TO.C,Q1*%
X200450000Y-106940000D02*
X200450000Y-103090000D01*
X196150000Y-105000000D02*
G75*
G02*
X197651193Y-102643600I2600000J0D01*
G01*
X197651193Y-107356400D02*
G75*
G02*
X196150000Y-105000000I1098807J2356400D01*
G01*
X199862264Y-102697617D02*
G75*
G02*
X200450000Y-103090000I-1112264J-2302383D01*
G01*
X200450000Y-106940000D02*
G75*
G02*
X199872045Y-107322631I-1700000J1940000D01*
G01*
%TO.C,TP4*%
X194950000Y-102250000D02*
G75*
G02*
X192550000Y-102250000I-1200000J0D01*
G01*
X192550000Y-102250000D02*
G75*
G02*
X194950000Y-102250000I1200000J0D01*
G01*
%TO.C,R6*%
X157840000Y-87677064D02*
X157840000Y-86222936D01*
X159660000Y-87677064D02*
X159660000Y-86222936D01*
%TO.C,R1*%
X219340000Y-98977064D02*
X219340000Y-97522936D01*
X221160000Y-98977064D02*
X221160000Y-97522936D01*
%TO.C,TP11*%
X179700000Y-104250000D02*
G75*
G02*
X177300000Y-104250000I-1200000J0D01*
G01*
X177300000Y-104250000D02*
G75*
G02*
X179700000Y-104250000I1200000J0D01*
G01*
%TO.C,SW1*%
X197974000Y-80494000D02*
X197974000Y-81994000D01*
X199224000Y-84494000D02*
X203724000Y-84494000D01*
X203724000Y-77994000D02*
X199224000Y-77994000D01*
X204974000Y-81994000D02*
X204974000Y-80494000D01*
%TO.C,C1*%
X171048000Y-104898752D02*
X171048000Y-103476248D01*
X172868000Y-104898752D02*
X172868000Y-103476248D01*
%TO.C,TP12*%
X183200000Y-104250000D02*
G75*
G02*
X180800000Y-104250000I-1200000J0D01*
G01*
X180800000Y-104250000D02*
G75*
G02*
X183200000Y-104250000I1200000J0D01*
G01*
%TO.C,TP15*%
X198200000Y-91750000D02*
G75*
G02*
X195800000Y-91750000I-1200000J0D01*
G01*
X195800000Y-91750000D02*
G75*
G02*
X198200000Y-91750000I1200000J0D01*
G01*
%TO.C,J1*%
X149170000Y-90170000D02*
X149170000Y-77410000D01*
X151830000Y-77410000D02*
X149170000Y-77410000D01*
X151830000Y-90170000D02*
X149170000Y-90170000D01*
X151830000Y-90170000D02*
X151830000Y-77410000D01*
X151830000Y-91440000D02*
X151830000Y-92770000D01*
X151830000Y-92770000D02*
X150500000Y-92770000D01*
%TO.C,J6*%
X207458000Y-80578000D02*
X207458000Y-79248000D01*
X208788000Y-80578000D02*
X207458000Y-80578000D01*
X210058000Y-77918000D02*
X217738000Y-77918000D01*
X210058000Y-80578000D02*
X210058000Y-77918000D01*
X210058000Y-80578000D02*
X217738000Y-80578000D01*
X217738000Y-80578000D02*
X217738000Y-77918000D01*
%TO.C,R4*%
X170378064Y-84180000D02*
X168923936Y-84180000D01*
X170378064Y-86000000D02*
X168923936Y-86000000D01*
%TO.C,SW2*%
X187560000Y-80494000D02*
X187560000Y-81994000D01*
X188810000Y-84494000D02*
X193310000Y-84494000D01*
X193310000Y-77994000D02*
X188810000Y-77994000D01*
X194560000Y-81994000D02*
X194560000Y-80494000D01*
%TO.C,TP3*%
X177222000Y-91440000D02*
G75*
G02*
X174822000Y-91440000I-1200000J0D01*
G01*
X174822000Y-91440000D02*
G75*
G02*
X177222000Y-91440000I1200000J0D01*
G01*
%TO.C,C9*%
X168960748Y-86466000D02*
X170383252Y-86466000D01*
X168960748Y-88286000D02*
X170383252Y-88286000D01*
%TO.C,SW3*%
X166478000Y-110250000D02*
X166478000Y-111750000D01*
X167728000Y-114250000D02*
X172228000Y-114250000D01*
X172228000Y-107750000D02*
X167728000Y-107750000D01*
X173478000Y-111750000D02*
X173478000Y-110250000D01*
%TO.C,R10*%
X164022936Y-77090000D02*
X165477064Y-77090000D01*
X164022936Y-78910000D02*
X165477064Y-78910000D01*
%TO.C,TP7*%
X182200000Y-82750000D02*
G75*
G02*
X179800000Y-82750000I-1200000J0D01*
G01*
X179800000Y-82750000D02*
G75*
G02*
X182200000Y-82750000I1200000J0D01*
G01*
%TO.C,D2*%
X200434000Y-110426000D02*
X200434000Y-110107000D01*
X200434000Y-112905000D02*
X200434000Y-112586000D01*
X196130758Y-110425276D02*
G75*
G02*
X200434000Y-110107251I2243242J-1080724D01*
G01*
X196691287Y-110425039D02*
G75*
G02*
X200057330Y-110426000I1682713J-1080961D01*
G01*
X200057330Y-112586000D02*
G75*
G02*
X196691287Y-112586961I-1683330J1080000D01*
G01*
X200434000Y-112904749D02*
G75*
G02*
X196130758Y-112586724I-2060000J1398749D01*
G01*
%TO.C,R2*%
X219340000Y-103977064D02*
X219340000Y-102522936D01*
X221160000Y-103977064D02*
X221160000Y-102522936D01*
%TD*%
M02*
