M48
; DRILL file {KiCad 8.0.4} date 2024-08-25T14:18:08+0200
; FORMAT={-:-/ absolute / metric / decimal}
; #@! TF.CreationDate,2024-08-25T14:18:08+02:00
; #@! TF.GenerationSoftware,Kicad,Pcbnew,8.0.4
; #@! TF.FileFunction,Plated,1,2,PTH
FMAT,2
METRIC
; #@! TA.AperFunction,Plated,PTH,ViaDrill
T1C0.300
; #@! TA.AperFunction,Plated,PTH,ComponentDrill
T2C0.600
; #@! TA.AperFunction,Plated,PTH,ComponentDrill
T3C0.750
; #@! TA.AperFunction,Plated,PTH,ComponentDrill
T4C0.800
; #@! TA.AperFunction,Plated,PTH,ComponentDrill
T5C0.900
; #@! TA.AperFunction,Plated,PTH,ComponentDrill
T6C1.000
; #@! TA.AperFunction,Plated,PTH,ComponentDrill
T7C1.100
%
G90
G05
T1
X152.5Y-96.25
X152.81Y-91.44
X155.0Y-96.75
X155.0Y-99.25
X156.0Y-109.0
X156.75Y-102.0
X156.75Y-106.75
X157.0Y-83.75
X157.75Y-102.0
X157.75Y-105.75
X159.0Y-103.0
X160.25Y-92.0
X161.0Y-86.25
X161.25Y-94.75
X163.83Y-83.82
X164.25Y-111.0
X168.0Y-100.25
X169.33Y-89.25
X171.75Y-101.0
X172.339Y-85.09
X172.339Y-87.376
X172.466Y-81.788
X172.466Y-82.804
X173.25Y-115.25
X174.5Y-93.5
X174.5Y-100.5
X174.75Y-101.75
X175.5Y-81.75
X175.5Y-82.842
X176.75Y-83.5
X177.0Y-100.5
X178.836Y-96.451
X179.0Y-98.0
X180.848Y-86.995
X183.388Y-115.25
X185.758Y-86.992
X188.138Y-88.138
X188.5Y-87.25
X190.5Y-88.0
X192.0Y-88.0
X193.5Y-115.25
X196.0Y-88.5
X199.25Y-98.812
X202.438Y-85.09
X206.75Y-113.0
X208.0Y-86.75
X208.0Y-92.25
X208.25Y-85.0
X211.5Y-87.5
X211.75Y-114.0
X213.5Y-109.25
X216.75Y-103.5
X220.5Y-80.75
T3
X168.0Y-102.71
X168.0Y-103.98
X168.0Y-105.25
T4
X198.75Y-102.46
X198.75Y-105.0
X198.75Y-107.54
T5
X155.225Y-80.75
X157.765Y-80.75
X161.25Y-80.75
X163.79Y-80.75
X197.104Y-111.506
X199.644Y-111.506
T6
X150.5Y-78.74
X150.5Y-81.28
X150.5Y-83.82
X150.5Y-86.36
X150.5Y-88.9
X150.5Y-91.44
X150.5Y-95.475
X150.5Y-98.015
X163.25Y-106.0
X163.25Y-108.54
X169.164Y-79.248
X171.704Y-79.248
X176.022Y-79.248
X178.562Y-79.248
X181.102Y-79.248
X183.642Y-79.248
X203.45Y-105.25
X208.788Y-79.248
X211.05Y-105.25
X211.328Y-79.248
X213.868Y-79.248
X216.408Y-79.248
T7
X159.17Y-97.0
X166.728Y-108.75
X166.728Y-113.25
X169.33Y-97.0
X173.228Y-108.75
X173.228Y-113.25
X176.888Y-108.75
X176.888Y-113.25
X183.388Y-108.75
X183.388Y-113.25
X187.048Y-108.75
X187.048Y-113.25
X187.81Y-78.994
X187.81Y-83.494
X193.548Y-108.75
X193.548Y-113.25
X194.31Y-78.994
X194.31Y-83.494
X198.224Y-78.994
X198.224Y-83.494
X204.724Y-78.994
X204.724Y-83.494
T2
G00X150.272Y-101.93
M15
G01X149.472Y-101.93
M16
G05
G00X150.272Y-110.57
M15
G01X149.472Y-110.57
M16
G05
G00X154.072Y-101.93
M15
G01X153.272Y-101.93
M16
G05
G00X154.072Y-110.57
M15
G01X153.272Y-110.57
M16
G05
T6
G00X212.225Y-91.5
M15
G01X212.225Y-93.0
M16
G05
G00X216.29Y-91.5
M15
G01X216.29Y-93.0
M16
G05
G00X220.353Y-91.5
M15
G01X220.353Y-93.0
M16
G05
M30
