%TF.GenerationSoftware,KiCad,Pcbnew,8.0.4*%
%TF.CreationDate,2024-08-25T14:26:38+02:00*%
%TF.ProjectId,cooking_thermometer,636f6f6b-696e-4675-9f74-6865726d6f6d,rev?*%
%TF.SameCoordinates,Original*%
%TF.FileFunction,Soldermask,Top*%
%TF.FilePolarity,Negative*%
%FSLAX46Y46*%
G04 Gerber Fmt 4.6, Leading zero omitted, Abs format (unit mm)*
G04 Created by KiCad (PCBNEW 8.0.4) date 2024-08-25 14:26:38*
%MOMM*%
%LPD*%
G01*
G04 APERTURE LIST*
G04 Aperture macros list*
%AMRoundRect*
0 Rectangle with rounded corners*
0 $1 Rounding radius*
0 $2 $3 $4 $5 $6 $7 $8 $9 X,Y pos of 4 corners*
0 Add a 4 corners polygon primitive as box body*
4,1,4,$2,$3,$4,$5,$6,$7,$8,$9,$2,$3,0*
0 Add four circle primitives for the rounded corners*
1,1,$1+$1,$2,$3*
1,1,$1+$1,$4,$5*
1,1,$1+$1,$6,$7*
1,1,$1+$1,$8,$9*
0 Add four rect primitives between the rounded corners*
20,1,$1+$1,$2,$3,$4,$5,0*
20,1,$1+$1,$4,$5,$6,$7,0*
20,1,$1+$1,$6,$7,$8,$9,0*
20,1,$1+$1,$8,$9,$2,$3,0*%
G04 Aperture macros list end*
%ADD10C,0.200000*%
%ADD11C,2.000000*%
%ADD12RoundRect,0.250000X-0.400000X-0.625000X0.400000X-0.625000X0.400000X0.625000X-0.400000X0.625000X0*%
%ADD13C,3.200000*%
%ADD14RoundRect,0.125000X-1.375000X-0.125000X1.375000X-0.125000X1.375000X0.125000X-1.375000X0.125000X0*%
%ADD15RoundRect,0.125000X-0.125000X-1.375000X0.125000X-1.375000X0.125000X1.375000X-0.125000X1.375000X0*%
%ADD16RoundRect,0.250000X0.650000X-0.412500X0.650000X0.412500X-0.650000X0.412500X-0.650000X-0.412500X0*%
%ADD17R,1.700000X1.700000*%
%ADD18O,1.700000X1.700000*%
%ADD19RoundRect,0.250000X-0.625000X0.400000X-0.625000X-0.400000X0.625000X-0.400000X0.625000X0.400000X0*%
%ADD20R,2.200000X2.200000*%
%ADD21O,2.200000X2.200000*%
%ADD22R,1.800000X1.800000*%
%ADD23C,1.800000*%
%ADD24O,2.500000X4.000000*%
%ADD25RoundRect,0.162500X-0.617500X-0.162500X0.617500X-0.162500X0.617500X0.162500X-0.617500X0.162500X0*%
%ADD26R,1.500000X1.050000*%
%ADD27O,1.500000X1.050000*%
%ADD28RoundRect,0.175000X-1.325000X0.175000X-1.325000X-0.175000X1.325000X-0.175000X1.325000X0.175000X0*%
%ADD29RoundRect,0.190000X1.310000X-0.190000X1.310000X0.190000X-1.310000X0.190000X-1.310000X-0.190000X0*%
%ADD30RoundRect,0.200000X1.300000X-0.200000X1.300000X0.200000X-1.300000X0.200000X-1.300000X-0.200000X0*%
%ADD31RoundRect,0.175000X1.325000X-0.175000X1.325000X0.175000X-1.325000X0.175000X-1.325000X-0.175000X0*%
%ADD32RoundRect,0.190000X-1.310000X0.190000X-1.310000X-0.190000X1.310000X-0.190000X1.310000X0.190000X0*%
%ADD33RoundRect,0.200000X-1.300000X0.200000X-1.300000X-0.200000X1.300000X-0.200000X1.300000X0.200000X0*%
%ADD34O,2.400000X1.600000*%
%ADD35RoundRect,0.250000X-0.650000X0.412500X-0.650000X-0.412500X0.650000X-0.412500X0.650000X0.412500X0*%
%ADD36R,2.000000X2.000000*%
%ADD37RoundRect,0.250000X-0.412500X-0.650000X0.412500X-0.650000X0.412500X0.650000X-0.412500X0.650000X0*%
%ADD38R,1.500000X1.500000*%
%ADD39C,1.500000*%
%ADD40RoundRect,0.250000X0.625000X-0.400000X0.625000X0.400000X-0.625000X0.400000X-0.625000X-0.400000X0*%
%ADD41RoundRect,0.250000X0.400000X0.625000X-0.400000X0.625000X-0.400000X-0.625000X0.400000X-0.625000X0*%
%ADD42C,0.600000*%
G04 APERTURE END LIST*
D10*
%TO.C,U1*%
X181610000Y-92456000D02*
X181356000Y-91948000D01*
X181864000Y-91948000D01*
X181610000Y-92456000D01*
G36*
X181610000Y-92456000D02*
G01*
X181356000Y-91948000D01*
X181864000Y-91948000D01*
X181610000Y-92456000D01*
G37*
%TD*%
D11*
%TO.C,TP2*%
X178562000Y-89408000D03*
%TD*%
D12*
%TO.C,R3*%
X202132000Y-113030000D03*
X205232000Y-113030000D03*
%TD*%
D13*
%TO.C,H1*%
X217750000Y-85000000D03*
%TD*%
D11*
%TO.C,SW4*%
X183388000Y-113250000D03*
X176888000Y-113250000D03*
X183388000Y-108750000D03*
X176888000Y-108750000D03*
%TD*%
D12*
%TO.C,R8*%
X158400000Y-99750000D03*
X161500000Y-99750000D03*
%TD*%
D11*
%TO.C,SW5*%
X193548000Y-113250000D03*
X187048000Y-113250000D03*
X193548000Y-108750000D03*
X187048000Y-108750000D03*
%TD*%
D14*
%TO.C,U1*%
X182019000Y-93212000D03*
X182019000Y-94012000D03*
X182019000Y-94812000D03*
X182019000Y-95612000D03*
X182019000Y-96412000D03*
X182019000Y-97212000D03*
X182019000Y-98012000D03*
X182019000Y-98812000D03*
D15*
X184144000Y-100937000D03*
X184944000Y-100937000D03*
X185744000Y-100937000D03*
X186544000Y-100937000D03*
X187344000Y-100937000D03*
X188144000Y-100937000D03*
X188944000Y-100937000D03*
X189744000Y-100937000D03*
D14*
X191869000Y-98812000D03*
X191869000Y-98012000D03*
X191869000Y-97212000D03*
X191869000Y-96412000D03*
X191869000Y-95612000D03*
X191869000Y-94812000D03*
X191869000Y-94012000D03*
X191869000Y-93212000D03*
D15*
X189744000Y-91087000D03*
X188944000Y-91087000D03*
X188144000Y-91087000D03*
X187344000Y-91087000D03*
X186544000Y-91087000D03*
X185744000Y-91087000D03*
X184944000Y-91087000D03*
X184144000Y-91087000D03*
%TD*%
D16*
%TO.C,C10*%
X156250000Y-88500000D03*
X156250000Y-85375000D03*
%TD*%
D17*
%TO.C,J3*%
X169164000Y-79248000D03*
D18*
X171704000Y-79248000D03*
%TD*%
D11*
%TO.C,TP8*%
X183250000Y-85000000D03*
%TD*%
D19*
%TO.C,R5*%
X206750000Y-93950000D03*
X206750000Y-97050000D03*
%TD*%
D12*
%TO.C,R9*%
X163450000Y-99750000D03*
X166550000Y-99750000D03*
%TD*%
D17*
%TO.C,J4*%
X150500000Y-95475000D03*
D18*
X150500000Y-98015000D03*
%TD*%
D16*
%TO.C,C8*%
X194250000Y-89062500D03*
X194250000Y-85937500D03*
%TD*%
D11*
%TO.C,TP10*%
X181610000Y-90043000D03*
%TD*%
D20*
%TO.C,D1*%
X169330000Y-97000000D03*
D21*
X159170000Y-97000000D03*
%TD*%
D22*
%TO.C,D4*%
X161250000Y-80750000D03*
D23*
X163790000Y-80750000D03*
%TD*%
D24*
%TO.C,J8*%
X220353500Y-92250000D03*
X216289500Y-92250000D03*
X212225500Y-92250000D03*
%TD*%
D25*
%TO.C,U3*%
X163167000Y-85222000D03*
X163167000Y-86172000D03*
X163167000Y-87122000D03*
X165867000Y-87122000D03*
X165867000Y-85222000D03*
%TD*%
D26*
%TO.C,U2*%
X168000000Y-102710000D03*
D27*
X168000000Y-103980000D03*
X168000000Y-105250000D03*
%TD*%
D11*
%TO.C,TP13*%
X204750000Y-87250000D03*
%TD*%
D28*
%TO.C,J9*%
X154252500Y-105750000D03*
D29*
X154252500Y-107770000D03*
D30*
X154252500Y-109000000D03*
D31*
X154252500Y-106750000D03*
D32*
X154252500Y-104730000D03*
D33*
X154252500Y-103500000D03*
D34*
X153672500Y-101930000D03*
X149872500Y-101930000D03*
X153672500Y-110570000D03*
X149872500Y-110570000D03*
%TD*%
D13*
%TO.C,H5*%
X158500000Y-112500000D03*
%TD*%
D11*
%TO.C,TP9*%
X176149000Y-87249000D03*
%TD*%
D22*
%TO.C,D3*%
X155225000Y-80750000D03*
D23*
X157765000Y-80750000D03*
%TD*%
D11*
%TO.C,TP6*%
X178943000Y-85852000D03*
%TD*%
D13*
%TO.C,H2*%
X217750000Y-111500000D03*
%TD*%
D11*
%TO.C,TP5*%
X201250000Y-99750000D03*
%TD*%
D17*
%TO.C,J2*%
X183642000Y-79248000D03*
D18*
X181102000Y-79248000D03*
X178562000Y-79248000D03*
X176022000Y-79248000D03*
%TD*%
D17*
%TO.C,J7*%
X163250000Y-108540000D03*
D18*
X163250000Y-106000000D03*
%TD*%
D35*
%TO.C,C4*%
X177000000Y-95719500D03*
X177000000Y-98844500D03*
%TD*%
D12*
%TO.C,R7*%
X190448000Y-105410000D03*
X193548000Y-105410000D03*
%TD*%
D11*
%TO.C,TP14*%
X200750000Y-90000000D03*
%TD*%
D12*
%TO.C,R11*%
X198068000Y-86360000D03*
X201168000Y-86360000D03*
%TD*%
D11*
%TO.C,TP1*%
X202000000Y-95250000D03*
%TD*%
D36*
%TO.C,BZ1*%
X211050000Y-105250000D03*
D11*
X203450000Y-105250000D03*
%TD*%
D37*
%TO.C,C2*%
X161687500Y-102750000D03*
X164812500Y-102750000D03*
%TD*%
D35*
%TO.C,C3*%
X174500000Y-95719500D03*
X174500000Y-98844500D03*
%TD*%
D38*
%TO.C,Q1*%
X198750000Y-107540000D03*
D39*
X198750000Y-105000000D03*
X198750000Y-102460000D03*
%TD*%
D13*
%TO.C,H4*%
X215000000Y-99250000D03*
%TD*%
D11*
%TO.C,TP4*%
X193750000Y-102250000D03*
%TD*%
D40*
%TO.C,R6*%
X158750000Y-88500000D03*
X158750000Y-85400000D03*
%TD*%
D13*
%TO.C,H3*%
X164750000Y-91750000D03*
%TD*%
D40*
%TO.C,R1*%
X220250000Y-99800000D03*
X220250000Y-96700000D03*
%TD*%
D11*
%TO.C,TP11*%
X178500000Y-104250000D03*
%TD*%
%TO.C,SW1*%
X198224000Y-78994000D03*
X204724000Y-78994000D03*
X198224000Y-83494000D03*
X204724000Y-83494000D03*
%TD*%
D16*
%TO.C,C1*%
X171958000Y-105750000D03*
X171958000Y-102625000D03*
%TD*%
D11*
%TO.C,TP12*%
X182000000Y-104250000D03*
%TD*%
%TO.C,TP15*%
X197000000Y-91750000D03*
%TD*%
D17*
%TO.C,J1*%
X150500000Y-91440000D03*
D18*
X150500000Y-88900000D03*
X150500000Y-86360000D03*
X150500000Y-83820000D03*
X150500000Y-81280000D03*
X150500000Y-78740000D03*
%TD*%
D17*
%TO.C,J6*%
X208788000Y-79248000D03*
D18*
X211328000Y-79248000D03*
X213868000Y-79248000D03*
X216408000Y-79248000D03*
%TD*%
D41*
%TO.C,R4*%
X171201000Y-85090000D03*
X168101000Y-85090000D03*
%TD*%
D11*
%TO.C,SW2*%
X187810000Y-78994000D03*
X194310000Y-78994000D03*
X187810000Y-83494000D03*
X194310000Y-83494000D03*
%TD*%
%TO.C,TP3*%
X176022000Y-91440000D03*
%TD*%
D37*
%TO.C,C9*%
X168109500Y-87376000D03*
X171234500Y-87376000D03*
%TD*%
D11*
%TO.C,SW3*%
X173228000Y-113250000D03*
X166728000Y-113250000D03*
X173228000Y-108750000D03*
X166728000Y-108750000D03*
%TD*%
D12*
%TO.C,R10*%
X163200000Y-78000000D03*
X166300000Y-78000000D03*
%TD*%
D11*
%TO.C,TP7*%
X181000000Y-82750000D03*
%TD*%
D22*
%TO.C,D2*%
X199644000Y-111506000D03*
D23*
X197104000Y-111506000D03*
%TD*%
D40*
%TO.C,R2*%
X220250000Y-104800000D03*
X220250000Y-101700000D03*
%TD*%
D42*
X169330000Y-89250000D03*
X216750000Y-103500000D03*
X174500000Y-100500000D03*
X160250000Y-92000000D03*
X213500000Y-109250000D03*
X202438000Y-85090000D03*
X159000000Y-103000000D03*
X157000000Y-83750000D03*
X172339000Y-87376000D03*
X177000000Y-100500000D03*
X220500000Y-80750000D03*
X161250000Y-94750000D03*
X163830000Y-83820000D03*
X178835939Y-96450939D03*
X172339000Y-85090000D03*
X211500000Y-87500000D03*
X152810000Y-91440000D03*
X196000000Y-88500000D03*
X206750000Y-113000000D03*
X211750000Y-114000000D03*
X193500000Y-115250000D03*
X168000000Y-100250000D03*
X152500000Y-96250000D03*
X156000000Y-109000000D03*
X183388000Y-115250000D03*
X164250000Y-111000000D03*
X173250000Y-115250000D03*
X176750000Y-83500000D03*
X174500000Y-93500000D03*
X179000000Y-98000000D03*
X161000000Y-86250000D03*
X156750000Y-102000000D03*
X175500000Y-81750000D03*
X156750000Y-106750000D03*
X172466000Y-81788000D03*
X155000000Y-99250000D03*
X175500000Y-82842003D03*
X157750000Y-102000000D03*
X157750000Y-105750000D03*
X155000000Y-96750000D03*
X172466000Y-82804000D03*
X188138000Y-88138000D03*
X190500000Y-88000000D03*
X199250000Y-98812000D03*
X208000000Y-86750000D03*
X208250000Y-85000000D03*
X171750000Y-101000000D03*
X174750000Y-101750000D03*
X185757765Y-86992235D03*
X180848000Y-86995000D03*
X188500000Y-87250000D03*
X192000000Y-88000000D03*
X208000000Y-92250000D03*
M02*
