%TF.GenerationSoftware,KiCad,Pcbnew,8.0.4*%
%TF.CreationDate,2024-08-25T14:26:38+02:00*%
%TF.ProjectId,cooking_thermometer,636f6f6b-696e-4675-9f74-6865726d6f6d,rev?*%
%TF.SameCoordinates,Original*%
%TF.FileFunction,Soldermask,Bot*%
%TF.FilePolarity,Negative*%
%FSLAX46Y46*%
G04 Gerber Fmt 4.6, Leading zero omitted, Abs format (unit mm)*
G04 Created by KiCad (PCBNEW 8.0.4) date 2024-08-25 14:26:38*
%MOMM*%
%LPD*%
G01*
G04 APERTURE LIST*
%ADD10C,3.200000*%
%ADD11C,2.000000*%
%ADD12R,1.700000X1.700000*%
%ADD13O,1.700000X1.700000*%
%ADD14R,2.200000X2.200000*%
%ADD15O,2.200000X2.200000*%
%ADD16R,1.800000X1.800000*%
%ADD17C,1.800000*%
%ADD18O,2.500000X4.000000*%
%ADD19R,1.500000X1.050000*%
%ADD20O,1.500000X1.050000*%
%ADD21O,2.400000X1.600000*%
%ADD22R,2.000000X2.000000*%
%ADD23R,1.500000X1.500000*%
%ADD24C,1.500000*%
%ADD25C,0.600000*%
G04 APERTURE END LIST*
D10*
%TO.C,H1*%
X217750000Y-85000000D03*
%TD*%
D11*
%TO.C,SW4*%
X183388000Y-113250000D03*
X176888000Y-113250000D03*
X183388000Y-108750000D03*
X176888000Y-108750000D03*
%TD*%
%TO.C,SW5*%
X193548000Y-113250000D03*
X187048000Y-113250000D03*
X193548000Y-108750000D03*
X187048000Y-108750000D03*
%TD*%
D12*
%TO.C,J3*%
X169164000Y-79248000D03*
D13*
X171704000Y-79248000D03*
%TD*%
D12*
%TO.C,J4*%
X150500000Y-95475000D03*
D13*
X150500000Y-98015000D03*
%TD*%
D14*
%TO.C,D1*%
X169330000Y-97000000D03*
D15*
X159170000Y-97000000D03*
%TD*%
D16*
%TO.C,D4*%
X161250000Y-80750000D03*
D17*
X163790000Y-80750000D03*
%TD*%
D18*
%TO.C,J8*%
X220353500Y-92250000D03*
X216289500Y-92250000D03*
X212225500Y-92250000D03*
%TD*%
D19*
%TO.C,U2*%
X168000000Y-102710000D03*
D20*
X168000000Y-103980000D03*
X168000000Y-105250000D03*
%TD*%
D21*
%TO.C,J9*%
X153672500Y-101930000D03*
X149872500Y-101930000D03*
X153672500Y-110570000D03*
X149872500Y-110570000D03*
%TD*%
D10*
%TO.C,H5*%
X158500000Y-112500000D03*
%TD*%
D16*
%TO.C,D3*%
X155225000Y-80750000D03*
D17*
X157765000Y-80750000D03*
%TD*%
D10*
%TO.C,H2*%
X217750000Y-111500000D03*
%TD*%
D12*
%TO.C,J2*%
X183642000Y-79248000D03*
D13*
X181102000Y-79248000D03*
X178562000Y-79248000D03*
X176022000Y-79248000D03*
%TD*%
D12*
%TO.C,J7*%
X163250000Y-108540000D03*
D13*
X163250000Y-106000000D03*
%TD*%
D22*
%TO.C,BZ1*%
X211050000Y-105250000D03*
D11*
X203450000Y-105250000D03*
%TD*%
D23*
%TO.C,Q1*%
X198750000Y-107540000D03*
D24*
X198750000Y-105000000D03*
X198750000Y-102460000D03*
%TD*%
D10*
%TO.C,H4*%
X215000000Y-99250000D03*
%TD*%
%TO.C,H3*%
X164750000Y-91750000D03*
%TD*%
D11*
%TO.C,SW1*%
X198224000Y-78994000D03*
X204724000Y-78994000D03*
X198224000Y-83494000D03*
X204724000Y-83494000D03*
%TD*%
D12*
%TO.C,J1*%
X150500000Y-91440000D03*
D13*
X150500000Y-88900000D03*
X150500000Y-86360000D03*
X150500000Y-83820000D03*
X150500000Y-81280000D03*
X150500000Y-78740000D03*
%TD*%
D12*
%TO.C,J6*%
X208788000Y-79248000D03*
D13*
X211328000Y-79248000D03*
X213868000Y-79248000D03*
X216408000Y-79248000D03*
%TD*%
D11*
%TO.C,SW2*%
X187810000Y-78994000D03*
X194310000Y-78994000D03*
X187810000Y-83494000D03*
X194310000Y-83494000D03*
%TD*%
%TO.C,SW3*%
X173228000Y-113250000D03*
X166728000Y-113250000D03*
X173228000Y-108750000D03*
X166728000Y-108750000D03*
%TD*%
D16*
%TO.C,D2*%
X199644000Y-111506000D03*
D17*
X197104000Y-111506000D03*
%TD*%
D25*
X169330000Y-89250000D03*
X216750000Y-103500000D03*
X174500000Y-100500000D03*
X160250000Y-92000000D03*
X213500000Y-109250000D03*
X202438000Y-85090000D03*
X159000000Y-103000000D03*
X157000000Y-83750000D03*
X172339000Y-87376000D03*
X177000000Y-100500000D03*
X220500000Y-80750000D03*
X161250000Y-94750000D03*
X163830000Y-83820000D03*
X178835939Y-96450939D03*
X172339000Y-85090000D03*
X211500000Y-87500000D03*
X152810000Y-91440000D03*
X196000000Y-88500000D03*
X206750000Y-113000000D03*
X211750000Y-114000000D03*
X193500000Y-115250000D03*
X168000000Y-100250000D03*
X152500000Y-96250000D03*
X156000000Y-109000000D03*
X183388000Y-115250000D03*
X164250000Y-111000000D03*
X173250000Y-115250000D03*
X176750000Y-83500000D03*
X174500000Y-93500000D03*
X179000000Y-98000000D03*
X161000000Y-86250000D03*
X156750000Y-102000000D03*
X175500000Y-81750000D03*
X156750000Y-106750000D03*
X172466000Y-81788000D03*
X155000000Y-99250000D03*
X175500000Y-82842003D03*
X157750000Y-102000000D03*
X157750000Y-105750000D03*
X155000000Y-96750000D03*
X172466000Y-82804000D03*
X188138000Y-88138000D03*
X190500000Y-88000000D03*
X199250000Y-98812000D03*
X208000000Y-86750000D03*
X208250000Y-85000000D03*
X171750000Y-101000000D03*
X174750000Y-101750000D03*
X185757765Y-86992235D03*
X180848000Y-86995000D03*
X188500000Y-87250000D03*
X192000000Y-88000000D03*
X208000000Y-92250000D03*
M02*
